<?xml version="1.0" encoding="UTF-8" standalone="no"?>
<!-- Created with Inkscape (http://www.inkscape.org/) -->

<svg
   width="1000mm"
   height="100mm"
   viewBox="0 0 1000 100"
   version="1.1"
   id="svg3003"
   inkscape:version="1.1 (c68e22c387, 2021-05-23)"
   sodipodi:docname="05_Balsa_4mm_Nervure0.svg"
   xmlns:inkscape="http://www.inkscape.org/namespaces/inkscape"
   xmlns:sodipodi="http://sodipodi.sourceforge.net/DTD/sodipodi-0.dtd"
   xmlns="http://www.w3.org/2000/svg"
   xmlns:svg="http://www.w3.org/2000/svg">
  <sodipodi:namedview
     id="namedview3005"
     pagecolor="#ffffff"
     bordercolor="#666666"
     borderopacity="1.0"
     inkscape:pageshadow="2"
     inkscape:pageopacity="0.0"
     inkscape:pagecheckerboard="0"
     inkscape:document-units="mm"
     showgrid="false"
     inkscape:zoom="0.4424647"
     inkscape:cx="1890.5463"
     inkscape:cy="188.71562"
     inkscape:window-width="2560"
     inkscape:window-height="1377"
     inkscape:window-x="-8"
     inkscape:window-y="-8"
     inkscape:window-maximized="1"
     inkscape:current-layer="layer1" />
  <defs
     id="defs3000" />
  <g
     inkscape:label="Calque 1"
     inkscape:groupmode="layer"
     id="layer1">
    <path
       d="m 5.026423,47.384534 c 0.8228134,0 1.4900901,0.70708 1.4900901,1.57907 0,0.87193 -0.6672767,1.57904 -1.4900901,1.57904 m 94.215683,-1.61601 c 0,-1.16261 0.901194,-2.10541 2.012274,-2.10541 1.11111,0 2.01221,0.9428 2.01221,2.10541 0,1.16258 -0.9011,2.10538 -2.01221,2.10538 -1.11108,0 -2.012274,-0.9428 -2.012274,-2.10538 z m -14.923016,0 c 0,-1.16261 0.901194,-2.10541 2.012268,-2.10541 1.111104,0 2.012301,0.9428 2.012301,2.10541 0,1.16258 -0.901197,2.10538 -2.012301,2.10538 -1.111074,0 -2.012268,-0.9428 -2.012268,-2.10538 z m 74.6837,0.0372 c -1.6123,-9.00599 -16.04059,-14.30549 -35.026,-13.9906 -44.76847,0.74271 -116.2942835,10.5241 -117.4602769,10.69421 l -1.4900901,1.71711 m 0,3.15811 1.4900901,1.71757 c 1.1656134,0.17 72.6478169,10.31959 117.4223869,10.69601 19.04341,0.16009 33.4505,-4.9808 35.06389,-13.99262"
       style="display:inline;fill:none;stroke:#ff171b;stroke-width:0.19999;stroke-linecap:butt;stroke-linejoin:miter;stroke-miterlimit:22.9256;stroke-dasharray:none;stroke-opacity:1"
       id="path3509" />
    <path
       d="m 156.32463,17.04533 c -0.82282,0 -1.4901,0.707081 -1.4901,1.579071 0,0.871931 0.66728,1.579041 1.4901,1.579041 M 62.108407,18.587431 c 0,-1.162611 -0.9012,-2.105411 -2.01228,-2.105411 -1.11111,0 -2.01221,0.9428 -2.01221,2.105411 0,1.162581 0.9011,2.105381 2.01221,2.105381 1.11108,0 2.01228,-0.9428 2.01228,-2.105381 z m 14.9231,0 c 0,-1.162611 -0.9012,-2.105411 -2.01228,-2.105411 -1.11111,0 -2.01231,0.9428 -2.01231,2.105411 0,1.162581 0.9012,2.105381 2.01231,2.105381 1.11108,0 2.01228,-0.9428 2.01228,-2.105381 z m -74.6837898,0.0372 C 3.9600172,9.6186381 18.388307,4.3191381 37.373717,4.6340281 82.142307,5.3767381 153.66853,15.158129 154.83453,15.328239 l 1.4901,1.717111 m 0,3.158112 -1.4901,1.71757 c -1.16562,0.17 -72.648233,10.31959 -117.422923,10.69601 -19.04341,0.16009 -33.4504998,-4.9808 -35.0638898,-13.992621"
       style="display:inline;fill:none;stroke:#ff171b;stroke-width:0.19999;stroke-linecap:butt;stroke-linejoin:miter;stroke-miterlimit:22.9256;stroke-dasharray:none;stroke-opacity:1"
       id="path3509-8-3" />
    <path
       d="m 963.01857,62.052114 c 15.9597,-0.52362 27.9599,-5.02821 30.60319,-12.49193 l -4.60318,0.003 v -2.99999 l 4.60279,0.002 c -2.64678,-7.47199 -14.66642,-12.0513 -30.59641,-12.47339 l -0.006,2.9682 h -4.00001 v 21.9923 h 4.00001 v 2.99992 z"
       style="display:inline;fill:none;stroke:#ff171b;stroke-width:0.19999;stroke-linecap:butt;stroke-linejoin:miter;stroke-miterlimit:22.9256;stroke-dasharray:none;stroke-opacity:1"
       id="path3959-9-4" />
    <path
       d="m 988.91172,32.674805 c -15.9597,-0.52362 -27.9599,-5.02821 -30.60319,-12.49193 l 4.60318,0.003 v -2.99999 l -4.60279,0.002 C 960.9557,9.7158939 972.97534,5.1365839 988.90533,4.7144939 l 0.006,2.9682 h 4.00001 V 29.674995 h -4.00001 v 2.99992 z"
       style="display:inline;fill:none;stroke:#ff171b;stroke-width:0.19999;stroke-linecap:butt;stroke-linejoin:miter;stroke-miterlimit:22.9256;stroke-dasharray:none;stroke-opacity:1"
       id="path3959-9-3" />
    <path
       d="m 989.83886,96.282815 c -15.9597,-0.52362 -27.9599,-5.02821 -30.60319,-12.491931 l 4.60318,0.003 v -2.999992 l -4.60279,0.002 c 2.64678,-7.471995 14.66642,-12.051308 30.59641,-12.473398 l 0.006,2.968202 h 4.00001 v 21.992309 h -4.00001 v 2.99992 z"
       style="display:inline;fill:none;stroke:#ff171b;stroke-width:0.19999;stroke-linecap:butt;stroke-linejoin:miter;stroke-miterlimit:22.9256;stroke-dasharray:none;stroke-opacity:1"
       id="path3959-9-3-3" />
    <text
       xml:space="preserve"
       style="font-style:normal;font-weight:normal;font-size:10.5833px;line-height:1.25;font-family:sans-serif;fill:#000000;fill-opacity:1;stroke:none;stroke-width:0.264583"
       x="-44.018162"
       y="21.330326"
       id="text7840"
       transform="scale(-1,1)"><tspan
         sodipodi:role="line"
         id="tspan7838"
         style="stroke-width:0.264583"
         x="-44.018162"
         y="21.330326">0</tspan></text>
    <path
       d="m 158.68641,79.144772 c -0.82283,0 -1.49011,0.707081 -1.49011,1.579071 0,0.871931 0.66728,1.579041 1.49011,1.579041 M 64.470384,80.686873 c 0,-1.162611 -0.901197,-2.105411 -2.012271,-2.105411 -1.111101,0 -2.012198,0.9428 -2.012198,2.105411 0,1.162581 0.901097,2.105381 2.012198,2.105381 1.111074,0 2.012271,-0.9428 2.012271,-2.105381 z m 14.923013,0 c 0,-1.162611 -0.901194,-2.105411 -2.012268,-2.105411 -1.111104,0 -2.012298,0.9428 -2.012298,2.105411 0,1.162581 0.901194,2.105381 2.012298,2.105381 1.111074,0 2.012268,-0.9428 2.012268,-2.105381 z m -74.683443,0.0372 C 6.3222531,71.71808 20.75053,66.41858 39.735832,66.73347 84.50417,67.47618 156.0303,77.257571 157.1963,77.427681 l 1.49011,1.717111 m 0,3.158112 -1.49011,1.71757 c -1.16562,0.17 -72.64814,10.31959 -117.422578,10.69601 C 20.73042,94.876574 6.3233431,89.735684 4.709954,80.723863"
       style="display:inline;fill:none;stroke:#ff171b;stroke-width:0.19999;stroke-linecap:butt;stroke-linejoin:miter;stroke-miterlimit:22.9256;stroke-dasharray:none;stroke-opacity:1"
       id="path3509-8-3-7" />
    <text
       xml:space="preserve"
       style="font-style:normal;font-weight:normal;font-size:10.5833px;line-height:1.25;font-family:sans-serif;fill:#000000;fill-opacity:1;stroke:none;stroke-width:0.264583"
       x="-46.380447"
       y="83.429779"
       id="text7840-2"
       transform="scale(-1,1)"><tspan
         sodipodi:role="line"
         id="tspan7838-7"
         style="stroke-width:0.264583"
         x="-46.380447"
         y="83.429779">0</tspan></text>
    <text
       xml:space="preserve"
       style="font-style:normal;font-weight:normal;font-size:10.5833px;line-height:1.25;font-family:sans-serif;fill:#000000;fill-opacity:1;stroke:none;stroke-width:0.264583"
       x="122.48299"
       y="50.099449"
       id="text16418"><tspan
         sodipodi:role="line"
         id="tspan16416"
         style="stroke-width:0.264583"
         x="122.48299"
         y="50.099449">0</tspan></text>
    <path
       d="m 163.32883,48.147254 c 0.82282,0 1.49009,0.707077 1.49009,1.579064 0,0.871924 -0.66727,1.579031 -1.49009,1.579031 m 94.21569,-1.616001 c 0,-1.162604 0.90119,-2.105398 2.01227,-2.105398 1.11111,0 2.01221,0.942794 2.01221,2.105398 0,1.162571 -0.9011,2.105368 -2.01221,2.105368 -1.11108,0 -2.01227,-0.942797 -2.01227,-2.105368 z m -14.92302,0 c 0,-1.162604 0.90119,-2.105398 2.01227,-2.105398 1.1111,0 2.0123,0.942794 2.0123,2.105398 0,1.162571 -0.9012,2.105368 -2.0123,2.105368 -1.11108,0 -2.01227,-0.942797 -2.01227,-2.105368 z m 74.6837,0.0372 c -1.6123,-9.005939 -16.04059,-14.305409 -35.026,-13.990522 -44.76847,0.742707 -116.29428,10.52404 -117.46028,10.69415 l -1.49009,1.717098 m 0,3.158095 1.49009,1.717558 c 1.16562,0.17 72.64782,10.319533 117.42239,10.69595 19.04341,0.16009 33.4505,-4.980773 35.06389,-13.992539"
       style="display:inline;fill:none;stroke:#ff171b;stroke-width:0.19999;stroke-linecap:butt;stroke-linejoin:miter;stroke-miterlimit:22.9256;stroke-dasharray:none;stroke-opacity:1"
       id="path3509-1" />
    <path
       d="m 314.62704,17.80818 c -0.82282,0 -1.4901,0.707081 -1.4901,1.579071 0,0.871931 0.66728,1.579041 1.4901,1.579041 m -94.21622,-1.616011 c 0,-1.162611 -0.9012,-2.105411 -2.01228,-2.105411 -1.11111,0 -2.01221,0.9428 -2.01221,2.105411 0,1.162581 0.9011,2.105381 2.01221,2.105381 1.11108,0 2.01228,-0.9428 2.01228,-2.105381 z m 14.9231,0 c 0,-1.162611 -0.9012,-2.105411 -2.01228,-2.105411 -1.11111,0 -2.01231,0.9428 -2.01231,2.105411 0,1.162581 0.9012,2.105381 2.01231,2.105381 1.11108,0 2.01228,-0.9428 2.01228,-2.105381 z m -74.68379,0.0372 c 1.6123,-9.005993 16.04059,-14.30549 35.026,-13.9906003 44.76859,0.7427097 116.29481,10.5240983 117.46081,10.6942083 l 1.4901,1.717111 m 0,3.158112 -1.4901,1.71757 c -1.16562,0.17 -72.64823,10.319549 -117.42292,10.695966 -19.04341,0.16009 -33.4505,-4.98077 -35.06389,-13.992577"
       style="display:inline;fill:none;stroke:#ff171b;stroke-width:0.19999;stroke-linecap:butt;stroke-linejoin:miter;stroke-miterlimit:22.9256;stroke-dasharray:none;stroke-opacity:1"
       id="path3509-8-3-5" />
    <text
       xml:space="preserve"
       style="font-style:normal;font-weight:normal;font-size:10.5833px;line-height:1.25;font-family:sans-serif;fill:#000000;fill-opacity:1;stroke:none;stroke-width:0.264583"
       x="-202.31963"
       y="22.093155"
       id="text7840-5"
       transform="scale(-1,1)"><tspan
         sodipodi:role="line"
         id="tspan7838-76"
         style="stroke-width:0.264583"
         x="-202.31963"
         y="22.093155">0</tspan></text>
    <path
       d="m 316.98882,79.907314 c -0.82283,0 -1.49011,0.707077 -1.49011,1.579061 0,0.871927 0.66728,1.579034 1.49011,1.579034 m -94.21603,-1.616001 c 0,-1.162604 -0.90119,-2.105398 -2.01227,-2.105398 -1.1111,0 -2.0122,0.942794 -2.0122,2.105398 0,1.162571 0.9011,2.105368 2.0122,2.105368 1.11108,0 2.01227,-0.942797 2.01227,-2.105368 z m 14.92302,0 c 0,-1.162604 -0.9012,-2.105398 -2.01227,-2.105398 -1.11111,0 -2.0123,0.942794 -2.0123,2.105398 0,1.162571 0.90119,2.105368 2.0123,2.105368 1.11107,0 2.01227,-0.942797 2.01227,-2.105368 z m -74.68345,0.0372 c 1.6123,-9.005946 16.04058,-14.305416 35.02588,-13.990529 44.76834,0.742707 116.29447,10.52404 117.46047,10.69415 l 1.49011,1.717108 m 0,3.158102 -1.49011,1.717558 c -1.16562,0.17 -72.64814,10.319533 -117.42258,10.69595 -19.0433,0.16009 -33.45038,-4.980773 -35.06377,-13.992549"
       style="display:inline;fill:none;stroke:#ff171b;stroke-width:0.19999;stroke-linecap:butt;stroke-linejoin:miter;stroke-miterlimit:22.9256;stroke-dasharray:none;stroke-opacity:1"
       id="path3509-8-3-7-4" />
    <text
       xml:space="preserve"
       style="font-style:normal;font-weight:normal;font-size:10.5833px;line-height:1.25;font-family:sans-serif;fill:#000000;fill-opacity:1;stroke:none;stroke-width:0.264583"
       x="-204.68192"
       y="84.193138"
       id="text7840-2-1"
       transform="scale(-1,1)"><tspan
         sodipodi:role="line"
         id="tspan7838-7-4"
         style="stroke-width:0.264583"
         x="-204.68192"
         y="84.193138">0</tspan></text>
    <text
       xml:space="preserve"
       style="font-style:normal;font-weight:normal;font-size:10.5833px;line-height:1.25;font-family:sans-serif;fill:#000000;fill-opacity:1;stroke:none;stroke-width:0.264583"
       x="280.78516"
       y="50.862343"
       id="text16418-8"><tspan
         sodipodi:role="line"
         id="tspan16416-4"
         style="stroke-width:0.264583"
         x="280.78516"
         y="50.862343">0</tspan></text>
    <path
       d="m 321.09607,47.919947 c 0.82282,0 1.49009,0.707077 1.49009,1.579061 0,0.871924 -0.66727,1.579031 -1.49009,1.579031 m 94.21569,-1.616001 c 0,-1.162604 0.90119,-2.105398 2.01227,-2.105398 1.11111,0 2.01221,0.942794 2.01221,2.105398 0,1.162574 -0.9011,2.105368 -2.01221,2.105368 -1.11108,0 -2.01227,-0.942794 -2.01227,-2.105368 z m -14.92302,0 c 0,-1.162604 0.90119,-2.105398 2.01227,-2.105398 1.1111,0 2.0123,0.942794 2.0123,2.105398 0,1.162574 -0.9012,2.105368 -2.0123,2.105368 -1.11108,0 -2.01227,-0.942794 -2.01227,-2.105368 z m 74.6837,0.0372 c -1.6123,-9.005939 -16.04059,-14.305409 -35.026,-13.990522 -44.76847,0.742707 -116.29428,10.52404 -117.46028,10.69415 l -1.49009,1.717101 m 0,3.158092 1.49009,1.717561 c 1.16562,0.169997 72.64782,10.31953 117.42239,10.695947 19.04341,0.16009 33.4505,-4.98077 35.06389,-13.992539"
       style="display:inline;fill:none;stroke:#ff171b;stroke-width:0.19999;stroke-linecap:butt;stroke-linejoin:miter;stroke-miterlimit:22.9256;stroke-dasharray:none;stroke-opacity:1"
       id="path3509-5" />
    <path
       d="m 472.39428,17.580908 c -0.82282,0 -1.4901,0.707087 -1.4901,1.579071 0,0.871927 0.66728,1.579031 1.4901,1.579031 m -94.21622,-1.616001 c 0,-1.162601 -0.9012,-2.105408 -2.01228,-2.105408 -1.11111,0 -2.01221,0.942807 -2.01221,2.105408 0,1.162574 0.9011,2.105368 2.01221,2.105368 1.11108,0 2.01228,-0.942794 2.01228,-2.105368 z m 14.9231,0 c 0,-1.162601 -0.9012,-2.105408 -2.01228,-2.105408 -1.11111,0 -2.01231,0.942807 -2.01231,2.105408 0,1.162574 0.9012,2.105368 2.01231,2.105368 1.11108,0 2.01228,-0.942794 2.01228,-2.105368 z m -74.68379,0.0372 c 1.6123,-9.005949 16.04059,-14.305416 35.026,-13.990526 44.76859,0.7427034 116.29481,10.524037 117.46081,10.694144 l 1.4901,1.717111 m 0,3.158092 -1.4901,1.717561 c -1.16562,0.17 -72.64823,10.319533 -117.42292,10.69595 -19.04341,0.16009 -33.4505,-4.980773 -35.06389,-13.992542"
       style="display:inline;fill:none;stroke:#ff171b;stroke-width:0.19999;stroke-linecap:butt;stroke-linejoin:miter;stroke-miterlimit:22.9256;stroke-dasharray:none;stroke-opacity:1"
       id="path3509-8-3-6" />
    <text
       xml:space="preserve"
       style="font-style:normal;font-weight:normal;font-size:10.5833px;line-height:1.25;font-family:sans-serif;fill:#000000;fill-opacity:1;stroke:none;stroke-width:0.264583"
       x="-360.08835"
       y="21.865997"
       id="text7840-3"
       transform="scale(-1,1)"><tspan
         sodipodi:role="line"
         id="tspan7838-1"
         style="stroke-width:0.264583"
         x="-360.08835"
         y="21.865997">0</tspan></text>
    <path
       d="m 474.75606,79.680007 c -0.82283,0 -1.49011,0.707077 -1.49011,1.579061 0,0.871924 0.66728,1.579031 1.49011,1.579031 m -94.21603,-1.616001 c 0,-1.162604 -0.90119,-2.105398 -2.01227,-2.105398 -1.1111,0 -2.0122,0.942794 -2.0122,2.105398 0,1.162574 0.9011,2.105368 2.0122,2.105368 1.11108,0 2.01227,-0.942794 2.01227,-2.105368 z m 14.92302,0 c 0,-1.162604 -0.9012,-2.105398 -2.01227,-2.105398 -1.11111,0 -2.0123,0.942794 -2.0123,2.105398 0,1.162574 0.90119,2.105368 2.0123,2.105368 1.11107,0 2.01227,-0.942794 2.01227,-2.105368 z m -74.68345,0.0372 c 1.6123,-9.005949 16.04058,-14.305419 35.02588,-13.990532 44.76834,0.742717 116.29447,10.52405 117.46047,10.69416 l 1.49011,1.717101 m 0,3.158092 -1.49011,1.717561 c -1.16562,0.169997 -72.64814,10.31953 -117.42258,10.695947 -19.0433,0.16009 -33.45038,-4.98077 -35.06377,-13.992539"
       style="display:inline;fill:none;stroke:#ff171b;stroke-width:0.19999;stroke-linecap:butt;stroke-linejoin:miter;stroke-miterlimit:22.9256;stroke-dasharray:none;stroke-opacity:1"
       id="path3509-8-3-7-1" />
    <text
       xml:space="preserve"
       style="font-style:normal;font-weight:normal;font-size:10.5833px;line-height:1.25;font-family:sans-serif;fill:#000000;fill-opacity:1;stroke:none;stroke-width:0.264583"
       x="-362.45071"
       y="83.966141"
       id="text7840-2-9"
       transform="scale(-1,1)"><tspan
         sodipodi:role="line"
         id="tspan7838-7-6"
         style="stroke-width:0.264583"
         x="-362.45071"
         y="83.966141">0</tspan></text>
    <text
       xml:space="preserve"
       style="font-style:normal;font-weight:normal;font-size:10.5833px;line-height:1.25;font-family:sans-serif;fill:#000000;fill-opacity:1;stroke:none;stroke-width:0.264583"
       x="438.55377"
       y="50.635323"
       id="text16418-0"><tspan
         sodipodi:role="line"
         id="tspan16416-3"
         style="stroke-width:0.264583"
         x="438.55377"
         y="50.635323">0</tspan></text>
    <path
       d="m 479.39848,48.682661 c 0.82282,0 1.49009,0.707077 1.49009,1.579051 0,0.871927 -0.66727,1.579024 -1.49009,1.579024 m 94.21569,-1.615991 c 0,-1.162594 0.90119,-2.105388 2.01227,-2.105388 1.11111,0 2.01221,0.942794 2.01221,2.105388 0,1.162561 -0.9011,2.105358 -2.01221,2.105358 -1.11108,0 -2.01227,-0.942797 -2.01227,-2.105358 z m -14.92302,0 c 0,-1.162594 0.90119,-2.105388 2.01227,-2.105388 1.1111,0 2.0123,0.942794 2.0123,2.105388 0,1.162561 -0.9012,2.105358 -2.0123,2.105358 -1.11108,0 -2.01227,-0.942797 -2.01227,-2.105358 z m 74.6837,0.0372 c -1.6123,-9.005886 -16.04059,-14.305326 -35.026,-13.990439 -44.76847,0.742707 -116.29428,10.52398 -117.46028,10.69409 l -1.49009,1.717088 m 0,3.158082 1.49009,1.717548 c 1.16562,0.17 72.64782,10.319473 117.42239,10.69589 19.04341,0.16009 33.4505,-4.980743 35.06389,-13.992469"
       style="display:inline;fill:none;stroke:#ff171b;stroke-width:0.19999;stroke-linecap:butt;stroke-linejoin:miter;stroke-miterlimit:22.9256;stroke-dasharray:none;stroke-opacity:1"
       id="path3509-1-3" />
    <path
       d="m 630.69669,18.343765 c -0.82282,0 -1.4901,0.707074 -1.4901,1.579061 0,0.871924 0.66728,1.579031 1.4901,1.579031 m -94.21622,-1.616001 c 0,-1.162604 -0.9012,-2.105398 -2.01228,-2.105398 -1.11111,0 -2.01221,0.942794 -2.01221,2.105398 0,1.162574 0.9011,2.105368 2.01221,2.105368 1.11108,0 2.01228,-0.942794 2.01228,-2.105368 z m 14.9231,0 c 0,-1.162604 -0.9012,-2.105398 -2.01228,-2.105398 -1.11111,0 -2.01231,0.942794 -2.01231,2.105398 0,1.162574 0.9012,2.105368 2.01231,2.105368 1.11108,0 2.01228,-0.942794 2.01228,-2.105368 z m -74.68379,0.0372 c 1.6123,-9.005949 16.04059,-14.3054063 35.026,-13.9905196 44.76859,0.7427067 116.29481,10.5240276 117.46081,10.6941376 l 1.4901,1.717111 m 0,3.158092 -1.4901,1.717561 c -1.16562,0.169997 -72.64823,10.31949 -117.42292,10.695897 -19.04341,0.16009 -33.4505,-4.98074 -35.06389,-13.992489"
       style="display:inline;fill:none;stroke:#ff171b;stroke-width:0.19999;stroke-linecap:butt;stroke-linejoin:miter;stroke-miterlimit:22.9256;stroke-dasharray:none;stroke-opacity:1"
       id="path3509-8-3-5-9" />
    <text
       xml:space="preserve"
       style="font-style:normal;font-weight:normal;font-size:10.5833px;line-height:1.25;font-family:sans-serif;fill:#000000;fill-opacity:1;stroke:none;stroke-width:0.264583"
       x="-518.39038"
       y="22.628807"
       id="text7840-5-1"
       transform="scale(-1,1)"><tspan
         sodipodi:role="line"
         id="tspan7838-76-5"
         style="stroke-width:0.264583"
         x="-518.39038"
         y="22.628807">0</tspan></text>
    <path
       d="m 633.05847,80.442541 c -0.82283,0 -1.49011,0.707077 -1.49011,1.579051 0,0.871927 0.66728,1.579021 1.49011,1.579021 m -94.21603,-1.615988 c 0,-1.162594 -0.90119,-2.105388 -2.01227,-2.105388 -1.1111,0 -2.0122,0.942794 -2.0122,2.105388 0,1.162561 0.9011,2.105358 2.0122,2.105358 1.11108,0 2.01227,-0.942797 2.01227,-2.105358 z m 14.92302,0 c 0,-1.162594 -0.9012,-2.105388 -2.01227,-2.105388 -1.11111,0 -2.0123,0.942794 -2.0123,2.105388 0,1.162561 0.90119,2.105358 2.0123,2.105358 1.11107,0 2.01227,-0.942797 2.01227,-2.105358 z m -74.68345,0.0372 c 1.6123,-9.005889 16.04058,-14.305326 35.02588,-13.990449 44.76834,0.742707 116.29447,10.52398 117.46047,10.69409 l 1.49011,1.717098 m 0,3.158089 -1.49011,1.717551 c -1.16562,0.17 -72.64814,10.319473 -117.42258,10.69589 -19.0433,0.16009 -33.45038,-4.980743 -35.06377,-13.992479"
       style="display:inline;fill:none;stroke:#ff171b;stroke-width:0.19999;stroke-linecap:butt;stroke-linejoin:miter;stroke-miterlimit:22.9256;stroke-dasharray:none;stroke-opacity:1"
       id="path3509-8-3-7-4-2" />
    <text
       xml:space="preserve"
       style="font-style:normal;font-weight:normal;font-size:10.5833px;line-height:1.25;font-family:sans-serif;fill:#000000;fill-opacity:1;stroke:none;stroke-width:0.264583"
       x="-520.75269"
       y="84.729515"
       id="text7840-2-1-7"
       transform="scale(-1,1)"><tspan
         sodipodi:role="line"
         id="tspan7838-7-4-3"
         style="stroke-width:0.264583"
         x="-520.75269"
         y="84.729515">0</tspan></text>
    <text
       xml:space="preserve"
       style="font-style:normal;font-weight:normal;font-size:10.5833px;line-height:1.25;font-family:sans-serif;fill:#000000;fill-opacity:1;stroke:none;stroke-width:0.264583"
       x="596.8559"
       y="51.398262"
       id="text16418-8-0"><tspan
         sodipodi:role="line"
         id="tspan16416-4-3"
         style="stroke-width:0.264583"
         x="596.8559"
         y="51.398262">0</tspan></text>
    <path
       d="m 637.6418,48.110067 c 0.82282,0 1.49009,0.707074 1.49009,1.579051 0,0.871914 -0.66727,1.579021 -1.49009,1.579021 m 94.21569,-1.615991 c 0,-1.162594 0.90119,-2.105388 2.01227,-2.105388 1.11111,0 2.01221,0.942794 2.01221,2.105388 0,1.162561 -0.9011,2.105358 -2.01221,2.105358 -1.11108,0 -2.01227,-0.942797 -2.01227,-2.105358 z m -14.92302,0 c 0,-1.162594 0.90119,-2.105388 2.01227,-2.105388 1.1111,0 2.0123,0.942794 2.0123,2.105388 0,1.162561 -0.9012,2.105358 -2.0123,2.105358 -1.11108,0 -2.01227,-0.942797 -2.01227,-2.105358 z m 74.6837,0.0372 c -1.6123,-9.005889 -16.04059,-14.305329 -35.026,-13.990442 -44.76847,0.742707 -116.29428,10.52398 -117.46028,10.69409 l -1.49009,1.717091 m 0,3.158072 1.49009,1.717548 c 1.16562,0.17 72.64782,10.319473 117.42239,10.69589 19.04341,0.16009 33.4505,-4.98074 35.06389,-13.992459"
       style="display:inline;fill:none;stroke:#ff171b;stroke-width:0.19999;stroke-linecap:butt;stroke-linejoin:miter;stroke-miterlimit:22.9256;stroke-dasharray:none;stroke-opacity:1"
       id="path3509-5-6" />
    <path
       d="m 788.94001,17.771172 c -0.82282,0 -1.4901,0.707087 -1.4901,1.579071 0,0.871927 0.66728,1.579031 1.4901,1.579031 m -94.21622,-1.616001 c 0,-1.162601 -0.9012,-2.105408 -2.01228,-2.105408 -1.11111,0 -2.01221,0.942807 -2.01221,2.105408 0,1.162574 0.9011,2.105368 2.01221,2.105368 1.11108,0 2.01228,-0.942794 2.01228,-2.105368 z m 14.9231,0 c 0,-1.162601 -0.9012,-2.105408 -2.01228,-2.105408 -1.11111,0 -2.01231,0.942807 -2.01231,2.105408 0,1.162574 0.9012,2.105368 2.01231,2.105368 1.11108,0 2.01228,-0.942794 2.01228,-2.105368 z m -74.68379,0.0372 C 636.5754,10.344524 651.00369,5.04506 669.9891,5.3599497 714.75769,6.1026524 786.28391,15.883984 787.44991,16.054091 l 1.4901,1.717111 m 0,3.158092 -1.4901,1.717557 c -1.16562,0.169997 -72.64823,10.31948 -117.42292,10.695887 -19.04341,0.16009 -33.4505,-4.98074 -35.06389,-13.992475"
       style="display:inline;fill:none;stroke:#ff171b;stroke-width:0.19999;stroke-linecap:butt;stroke-linejoin:miter;stroke-miterlimit:22.9256;stroke-dasharray:none;stroke-opacity:1"
       id="path3509-8-3-6-4" />
    <text
       xml:space="preserve"
       style="font-style:normal;font-weight:normal;font-size:10.5833px;line-height:1.25;font-family:sans-serif;fill:#000000;fill-opacity:1;stroke:none;stroke-width:0.264583"
       x="-676.63544"
       y="22.056236"
       id="text7840-3-6"
       transform="scale(-1,1)"><tspan
         sodipodi:role="line"
         id="tspan7838-1-0"
         style="stroke-width:0.264583"
         x="-676.63544"
         y="22.056236">0</tspan></text>
    <path
       d="m 791.30179,79.869947 c -0.82283,0 -1.49011,0.707074 -1.49011,1.579051 0,0.871924 0.66728,1.579021 1.49011,1.579021 m -94.21603,-1.615991 c 0,-1.162594 -0.90119,-2.105388 -2.01227,-2.105388 -1.1111,0 -2.0122,0.942794 -2.0122,2.105388 0,1.162561 0.9011,2.105358 2.0122,2.105358 1.11108,0 2.01227,-0.942797 2.01227,-2.105358 z m 14.92302,0 c 0,-1.162594 -0.9012,-2.105388 -2.01227,-2.105388 -1.11111,0 -2.0123,0.942794 -2.0123,2.105388 0,1.162561 0.90119,2.105358 2.0123,2.105358 1.11107,0 2.01227,-0.942797 2.01227,-2.105358 z m -74.68345,0.0372 c 1.6123,-9.005899 16.04058,-14.305339 35.02588,-13.990452 44.76834,0.742717 116.29447,10.52399 117.46047,10.6941 l 1.49011,1.717091 m 0,3.158072 -1.49011,1.717548 c -1.16562,0.17 -72.64814,10.319473 -117.42258,10.69589 -19.0433,0.16009 -33.45038,-4.98074 -35.06377,-13.992459"
       style="display:inline;fill:none;stroke:#ff171b;stroke-width:0.19999;stroke-linecap:butt;stroke-linejoin:miter;stroke-miterlimit:22.9256;stroke-dasharray:none;stroke-opacity:1"
       id="path3509-8-3-7-1-7" />
    <text
       xml:space="preserve"
       style="font-style:normal;font-weight:normal;font-size:10.5833px;line-height:1.25;font-family:sans-serif;fill:#000000;fill-opacity:1;stroke:none;stroke-width:0.264583"
       x="-678.9978"
       y="84.156914"
       id="text7840-2-9-2"
       transform="scale(-1,1)"><tspan
         sodipodi:role="line"
         id="tspan7838-7-6-0"
         style="stroke-width:0.264583"
         x="-678.9978"
         y="84.156914">0</tspan></text>
    <text
       xml:space="preserve"
       style="font-style:normal;font-weight:normal;font-size:10.5833px;line-height:1.25;font-family:sans-serif;fill:#000000;fill-opacity:1;stroke:none;stroke-width:0.264583"
       x="755.10089"
       y="50.825592"
       id="text16418-0-8"><tspan
         sodipodi:role="line"
         id="tspan16416-3-3"
         style="stroke-width:0.264583"
         x="755.10089"
         y="50.825592">0</tspan></text>
    <path
       d="m 795.94421,48.872771 c 0.82282,0 1.49009,0.707077 1.49009,1.579051 0,0.871914 -0.66727,1.579011 -1.49009,1.579011 m 94.21569,-1.615981 c 0,-1.162594 0.90119,-2.105378 2.01227,-2.105378 1.11111,0 2.01221,0.942784 2.01221,2.105378 0,1.162554 -0.9011,2.105348 -2.01221,2.105348 -1.11108,0 -2.01227,-0.942794 -2.01227,-2.105348 z m -14.92302,0 c 0,-1.162594 0.90119,-2.105378 2.01227,-2.105378 1.1111,0 2.0123,0.942784 2.0123,2.105378 0,1.162554 -0.9012,2.105348 -2.0123,2.105348 -1.11108,0 -2.01227,-0.942794 -2.01227,-2.105348 z m 74.6837,0.0372 C 948.30828,41.446213 933.87999,36.146803 914.89458,36.461693 870.12611,37.204397 798.6003,46.985613 797.4343,47.15572 l -1.49009,1.717081 m 0,3.158062 1.49009,1.717541 c 1.16562,0.17 72.64782,10.31941 117.42239,10.69583 19.04341,0.160087 33.4505,-4.980723 35.06389,-13.992392"
       style="display:inline;fill:none;stroke:#ff171b;stroke-width:0.19999;stroke-linecap:butt;stroke-linejoin:miter;stroke-miterlimit:22.9256;stroke-dasharray:none;stroke-opacity:1"
       id="path3509-1-3-1" />
    <path
       d="m 947.24242,18.534029 c -0.82282,0 -1.4901,0.707074 -1.4901,1.579061 0,0.871924 0.66728,1.579031 1.4901,1.579031 M 853.0262,20.07612 c 0,-1.162604 -0.9012,-2.105398 -2.01228,-2.105398 -1.11111,0 -2.01221,0.942794 -2.01221,2.105398 0,1.162574 0.9011,2.105368 2.01221,2.105368 1.11108,0 2.01228,-0.942794 2.01228,-2.105368 z m 14.9231,0 c 0,-1.162604 -0.9012,-2.105398 -2.01228,-2.105398 -1.11111,0 -2.01231,0.942794 -2.01231,2.105398 0,1.162574 0.9012,2.105368 2.01231,2.105368 1.11108,0 2.01228,-0.942794 2.01228,-2.105368 z m -74.68379,0.0372 c 1.6123,-9.005949 16.04059,-14.3054036 35.026,-13.9905176 44.76859,0.7427064 116.29481,10.5240256 117.46081,10.6941356 l 1.4901,1.717111 m 0,3.158092 -1.4901,1.717554 c -1.16562,0.17 -72.64823,10.319433 -117.42292,10.69584 -19.04341,0.16009 -33.4505,-4.980713 -35.06389,-13.992425"
       style="display:inline;fill:none;stroke:#ff171b;stroke-width:0.19999;stroke-linecap:butt;stroke-linejoin:miter;stroke-miterlimit:22.9256;stroke-dasharray:none;stroke-opacity:1"
       id="path3509-8-3-5-9-5" />
    <text
       xml:space="preserve"
       style="font-style:normal;font-weight:normal;font-size:10.5833px;line-height:1.25;font-family:sans-serif;fill:#000000;fill-opacity:1;stroke:none;stroke-width:0.264583"
       x="-834.9375"
       y="22.819046"
       id="text7840-5-1-7"
       transform="scale(-1,1)"><tspan
         sodipodi:role="line"
         id="tspan7838-76-5-2"
         style="stroke-width:0.264583"
         x="-834.9375"
         y="22.819046">0</tspan></text>
    <path
       d="m 949.6042,80.632471 c -0.82283,0 -1.49011,0.707077 -1.49011,1.579051 0,0.871914 0.66728,1.579011 1.49011,1.579011 m -94.21603,-1.615981 c 0,-1.162594 -0.90119,-2.105378 -2.01227,-2.105378 -1.1111,0 -2.0122,0.942784 -2.0122,2.105378 0,1.162554 0.9011,2.105348 2.0122,2.105348 1.11108,0 2.01227,-0.942794 2.01227,-2.105348 z m 14.92302,0 c 0,-1.162594 -0.9012,-2.105378 -2.01227,-2.105378 -1.11111,0 -2.0123,0.942784 -2.0123,2.105378 0,1.162554 0.90119,2.105348 2.0123,2.105348 1.11107,0 2.01227,-0.942794 2.01227,-2.105348 z m -74.68345,0.0372 c 1.6123,-9.005839 16.04058,-14.305249 35.02588,-13.990369 44.76834,0.742704 116.29447,10.52392 117.46047,10.694027 l 1.49011,1.717091 m 0,3.158072 -1.49011,1.717541 c -1.16562,0.17 -72.64814,10.31941 -117.42258,10.69583 -19.0433,0.160087 -33.45038,-4.980723 -35.06377,-13.992402"
       style="display:inline;fill:none;stroke:#ff171b;stroke-width:0.19999;stroke-linecap:butt;stroke-linejoin:miter;stroke-miterlimit:22.9256;stroke-dasharray:none;stroke-opacity:1"
       id="path3509-8-3-7-4-2-3" />
    <text
       xml:space="preserve"
       style="font-style:normal;font-weight:normal;font-size:10.5833px;line-height:1.25;font-family:sans-serif;fill:#000000;fill-opacity:1;stroke:none;stroke-width:0.264583"
       x="-837.2998"
       y="84.920311"
       id="text7840-2-1-7-6"
       transform="scale(-1,1)"><tspan
         sodipodi:role="line"
         id="tspan7838-7-4-3-1"
         style="stroke-width:0.264583"
         x="-837.2998"
         y="84.920311">0</tspan></text>
    <text
       xml:space="preserve"
       style="font-style:normal;font-weight:normal;font-size:10.5833px;line-height:1.25;font-family:sans-serif;fill:#000000;fill-opacity:1;stroke:none;stroke-width:0.264583"
       x="913.40302"
       y="51.588539"
       id="text16418-8-0-8"><tspan
         sodipodi:role="line"
         id="tspan16416-4-3-4"
         style="stroke-width:0.264583"
         x="913.40302"
         y="51.588539">0</tspan></text>
  </g>
</svg>
