<?xml version="1.0" encoding="UTF-8" standalone="no"?>
<!-- Created with Inkscape (http://www.inkscape.org/) -->

<svg
   width="1000mm"
   height="100mm"
   viewBox="0 0 1000 100"
   version="1.1"
   id="svg3003"
   inkscape:version="1.1 (c68e22c387, 2021-05-23)"
   sodipodi:docname="05_Balsa_4mm_Nervure1.svg"
   xmlns:inkscape="http://www.inkscape.org/namespaces/inkscape"
   xmlns:sodipodi="http://sodipodi.sourceforge.net/DTD/sodipodi-0.dtd"
   xmlns="http://www.w3.org/2000/svg"
   xmlns:svg="http://www.w3.org/2000/svg">
  <sodipodi:namedview
     id="namedview3005"
     pagecolor="#ffffff"
     bordercolor="#666666"
     borderopacity="1.0"
     inkscape:pageshadow="2"
     inkscape:pageopacity="0.0"
     inkscape:pagecheckerboard="0"
     inkscape:document-units="mm"
     showgrid="false"
     inkscape:zoom="0.4424647"
     inkscape:cx="1985.4691"
     inkscape:cy="188.71562"
     inkscape:window-width="2560"
     inkscape:window-height="1377"
     inkscape:window-x="-8"
     inkscape:window-y="-8"
     inkscape:window-maximized="1"
     inkscape:current-layer="layer1" />
  <defs
     id="defs3000" />
  <g
     inkscape:label="Calque 1"
     inkscape:groupmode="layer"
     id="layer1">
    <path
       d="M 167.1116,15.019683 C 84.879493,3.9477127 48.498903,2.8464127 12.649313,2.8464127 l -9.3673097,0.0644 V 34.746433 l 9.3673097,-0.0644 c 35.84959,0 72.23018,-1.1013 154.462287,-12.17319 l 5.0534,-2.2207 c -0.8371,0 -1.51599,-0.68242 -1.51599,-1.5239 0,-0.84151 0.67889,-1.52389 1.51599,-1.52389 z m -106.431107,3.80891 c 0,-2.80491 -2.26268,-5.07958 -5.05297,-5.07958 -2.7903,0 -5.05302,2.27467 -5.05302,5.07958 0,2.8049 2.26272,5.07961 5.05302,5.07961 2.79029,0 5.05297,-2.27471 5.05297,-5.07961 z m -26.01937,0 c 0,-2.80491 -2.26271,-5.07958 -5.05301,-5.07958 -2.7903,0 -5.05312,2.27467 -5.05312,5.07958 0,2.8049 2.26282,5.07961 5.05312,5.07961 2.7903,0 5.05301,-2.27471 5.05301,-5.07961 z"
       style="display:inline;fill:none;stroke:#ff171b;stroke-width:0.19999;stroke-linecap:butt;stroke-linejoin:miter;stroke-miterlimit:22.9256;stroke-dasharray:none;stroke-opacity:1"
       id="path2257" />
    <path
       d="M 8.6815212,46.813017 C 90.913631,35.74105 127.29422,34.639751 163.14381,34.639751 l 9.36731,0.0644 v 31.835616 l -9.36731,-0.0644 c -35.84959,0 -72.230179,-1.1013 -154.4622888,-12.17319 l -5.0534,-2.2207 c 0.8371,0 1.51599,-0.68242 1.51599,-1.5239 0,-0.84151 -0.67889,-1.52389 -1.51599,-1.52389 z m 106.4311088,3.80891 c 0,-2.80491 2.26268,-5.07958 5.05297,-5.07958 2.7903,0 5.05302,2.27467 5.05302,5.07958 0,2.8049 -2.26272,5.07961 -5.05302,5.07961 -2.79029,0 -5.05297,-2.27471 -5.05297,-5.07961 z m 26.01937,0 c 0,-2.80491 2.26271,-5.07958 5.05301,-5.07958 2.7903,0 5.05312,2.27467 5.05312,5.07958 0,2.8049 -2.26282,5.07961 -5.05312,5.07961 -2.7903,0 -5.05301,-2.27471 -5.05301,-5.07961 z"
       style="display:inline;fill:none;stroke:#ff171b;stroke-width:0.19999;stroke-linecap:butt;stroke-linejoin:miter;stroke-miterlimit:22.9256;stroke-dasharray:none;stroke-opacity:1"
       id="path2257-3" />
    <path
       d="m 966.15743,32.720553 c 15.9597,-0.52362 27.9599,-5.02821 30.60319,-12.49193 l -4.60318,0.003 v -2.99999 l 4.60279,0.002 C 994.11345,9.7616434 982.09381,5.1823361 966.16382,4.7602465 l -0.006,2.9681981 h -4.00001 V 29.720743 h 4.00001 v 2.99992 z"
       style="display:inline;fill:none;stroke:#ff171b;stroke-width:0.19999;stroke-linecap:butt;stroke-linejoin:miter;stroke-miterlimit:22.9256;stroke-dasharray:none;stroke-opacity:1"
       id="path3959-9-4" />
    <path
       d="m 884.91916,31.608127 c 15.9597,-0.52362 27.95959,-5.02821 30.60274,-12.49193 l -4.60293,0.003 v -2.999991 l 4.60253,0.002 C 912.87485,8.6492133 900.85554,4.0699058 884.92555,3.6478163 l -0.006,2.9681981 h -4.00001 V 28.608317 h 4.00001 v 2.99992 z"
       style="display:inline;fill:none;stroke:#ff171b;stroke-width:0.19999;stroke-linecap:butt;stroke-linejoin:miter;stroke-miterlimit:22.9256;stroke-dasharray:none;stroke-opacity:1"
       id="path3959-9-4-1" />
    <path
       d="m 951.80815,32.191386 c -15.9597,-0.52362 -27.9599,-5.02821 -30.60319,-12.49193 l 4.60318,0.003 v -2.99999 l -4.60279,0.002 C 923.85213,9.2324767 935.87177,4.6531694 951.80176,4.2310798 l 0.006,2.9681981 h 4.00001 V 29.191576 h -4.00001 v 2.99992 z"
       style="display:inline;fill:none;stroke:#ff171b;stroke-width:0.19999;stroke-linecap:butt;stroke-linejoin:miter;stroke-miterlimit:22.9256;stroke-dasharray:none;stroke-opacity:1"
       id="path3959-9-3" />
    <path
       d="m 965.26128,63.947193 c 15.9588,-0.52362 27.95831,-5.02821 30.60146,-12.49193 l -4.60293,0.003 v -2.99999 l 4.60253,0.002 c -2.64665,-7.47199 -14.66556,-12.051297 -30.59466,-12.473387 l -0.01,2.968199 h -3.99976 v 21.992298 h 3.99976 v 2.99992 z"
       style="display:inline;fill:none;stroke:#ff171b;stroke-width:0.19999;stroke-linecap:butt;stroke-linejoin:miter;stroke-miterlimit:22.9256;stroke-dasharray:none;stroke-opacity:1"
       id="path3959-9-4-3" />
    <path
       d="m 884.02537,62.834767 c 15.9597,-0.52362 27.95959,-5.02821 30.60274,-12.49193 l -4.60293,0.003 v -2.999991 l 4.60253,0.002 c -2.64665,-7.471993 -14.66596,-12.0513 -30.59595,-12.47339 l -0.006,2.968198 h -4.00001 v 21.992303 h 4.00001 v 2.99992 z"
       style="display:inline;fill:none;stroke:#ff171b;stroke-width:0.19999;stroke-linecap:butt;stroke-linejoin:miter;stroke-miterlimit:22.9256;stroke-dasharray:none;stroke-opacity:1"
       id="path3959-9-4-1-3" />
    <path
       d="m 950.91279,63.418026 c -15.9588,-0.52362 -27.95833,-5.02821 -30.60162,-12.49193 l 4.60309,0.003 v -2.99999 l -4.6027,0.002 c 2.64678,-7.471989 14.66583,-12.051297 30.59483,-12.473386 l 0.01,2.968198 h 3.99989 v 21.992298 h -3.99989 v 2.99992 z"
       style="display:inline;fill:none;stroke:#ff171b;stroke-width:0.19999;stroke-linecap:butt;stroke-linejoin:miter;stroke-miterlimit:22.9256;stroke-dasharray:none;stroke-opacity:1"
       id="path3959-9-3-8" />
    <path
       d="m 965.26128,95.697213 c 15.9588,-0.52362 27.95831,-5.02821 30.60146,-12.49193 l -4.60293,0.003 v -2.99999 l 4.60253,0.002 c -2.64665,-7.47199 -14.66556,-12.051297 -30.59466,-12.473387 l -0.01,2.968199 h -3.99976 v 21.992298 h 3.99976 v 2.99992 z"
       style="display:inline;fill:none;stroke:#ff171b;stroke-width:0.19999;stroke-linecap:butt;stroke-linejoin:miter;stroke-miterlimit:22.9256;stroke-dasharray:none;stroke-opacity:1"
       id="path3959-9-4-37" />
    <path
       d="m 884.02537,94.584787 c 15.9597,-0.52362 27.95959,-5.02821 30.60274,-12.49193 l -4.60293,0.003 v -2.999991 l 4.60253,0.002 c -2.64665,-7.471993 -14.66596,-12.0513 -30.59595,-12.47339 l -0.006,2.968198 h -4.00001 v 21.992303 h 4.00001 v 2.99992 z"
       style="display:inline;fill:none;stroke:#ff171b;stroke-width:0.19999;stroke-linecap:butt;stroke-linejoin:miter;stroke-miterlimit:22.9256;stroke-dasharray:none;stroke-opacity:1"
       id="path3959-9-4-1-31" />
    <path
       d="m 950.91279,95.168046 c -15.9588,-0.52362 -27.95833,-5.02821 -30.60162,-12.49193 l 4.60309,0.003 v -2.99999 l -4.6027,0.002 c 2.64678,-7.471989 14.66583,-12.051297 30.59483,-12.473386 l 0.01,2.968198 h 3.99989 v 21.992298 h -3.99989 v 2.99992 z"
       style="display:inline;fill:none;stroke:#ff171b;stroke-width:0.19999;stroke-linecap:butt;stroke-linejoin:miter;stroke-miterlimit:22.9256;stroke-dasharray:none;stroke-opacity:1"
       id="path3959-9-3-0" />
    <text
       xml:space="preserve"
       style="font-style:normal;font-weight:normal;font-size:10.5833px;line-height:1.25;font-family:sans-serif;fill:#000000;fill-opacity:1;stroke:none;stroke-width:0.264583"
       x="90.955292"
       y="53.483078"
       id="text21210"><tspan
         sodipodi:role="line"
         id="tspan21208"
         style="stroke-width:0.264583"
         x="90.955292"
         y="53.483078">1</tspan></text>
    <text
       xml:space="preserve"
       style="font-style:normal;font-weight:normal;font-size:10.5833px;line-height:1.25;font-family:sans-serif;fill:#000000;fill-opacity:1;stroke:none;stroke-width:0.264583"
       x="78.735703"
       y="21.923513"
       id="text22456"><tspan
         sodipodi:role="line"
         id="tspan22454"
         style="stroke-width:0.264583"
         x="78.735703"
         y="21.923513">1</tspan></text>
    <path
       d="M 167.67923,77.201882 C 85.4471,66.129908 49.06651,65.028607 13.216919,65.028607 l -9.3673115,0.0644 v 31.835625 l 9.3673115,-0.0644 c 35.849591,0 72.230181,-1.1013 154.462311,-12.17319 l 5.0534,-2.2207 c -0.8371,0 -1.51599,-0.68242 -1.51599,-1.5239 0,-0.84151 0.67889,-1.52389 1.51599,-1.52389 z M 61.2481,81.010792 c 0,-2.80491 -2.26268,-5.07958 -5.05297,-5.07958 -2.7903,0 -5.05302,2.27467 -5.05302,5.07958 0,2.8049 2.26272,5.07961 5.05302,5.07961 2.79029,0 5.05297,-2.27471 5.05297,-5.07961 z m -26.01937,0 c 0,-2.80491 -2.26271,-5.07958 -5.05301,-5.07958 -2.7903,0 -5.05312,2.27467 -5.05312,5.07958 0,2.8049 2.26282,5.07961 5.05312,5.07961 2.7903,0 5.05301,-2.27471 5.05301,-5.07961 z"
       style="display:inline;fill:none;stroke:#ff171b;stroke-width:0.19999;stroke-linecap:butt;stroke-linejoin:miter;stroke-miterlimit:22.9256;stroke-dasharray:none;stroke-opacity:1"
       id="path2257-8" />
    <text
       xml:space="preserve"
       style="font-style:normal;font-weight:normal;font-size:10.5833px;line-height:1.25;font-family:sans-serif;fill:#000000;fill-opacity:1;stroke:none;stroke-width:0.264583"
       x="79.303314"
       y="84.105728"
       id="text22456-6"><tspan
         sodipodi:role="line"
         id="tspan22454-1"
         style="stroke-width:0.264583"
         x="79.303314"
         y="84.105728">1</tspan></text>
    <path
       d="M 340.52559,15.62898 C 258.29348,4.5570423 221.91289,3.4557429 186.0633,3.4557429 l -9.36731,0.0644 V 35.355619 l 9.36731,-0.0644 c 35.84959,0 72.23018,-1.101294 154.46229,-12.173121 l 5.0534,-2.220688 c -0.8371,0 -1.51599,-0.682417 -1.51599,-1.523891 0,-0.841507 0.67889,-1.523881 1.51599,-1.523881 z m -106.43111,3.808889 c 0,-2.804895 -2.26268,-5.079553 -5.05297,-5.079553 -2.7903,0 -5.05302,2.274658 -5.05302,5.079553 0,2.804882 2.26272,5.07958 5.05302,5.07958 2.79029,0 5.05297,-2.274698 5.05297,-5.07958 z m -26.01937,0 c 0,-2.804895 -2.26271,-5.079553 -5.05301,-5.079553 -2.7903,0 -5.05312,2.274658 -5.05312,5.079553 0,2.804882 2.26282,5.07958 5.05312,5.07958 2.7903,0 5.05301,-2.274698 5.05301,-5.07958 z"
       style="display:inline;fill:none;stroke:#ff171b;stroke-width:0.19999;stroke-linecap:butt;stroke-linejoin:miter;stroke-miterlimit:22.9256;stroke-dasharray:none;stroke-opacity:1"
       id="path2257-4" />
    <path
       d="M 182.09551,47.42214 C 264.32762,36.350233 300.70821,35.248939 336.5578,35.248939 l 9.36731,0.0644 v 31.83544 l -9.36731,-0.0644 c -35.84959,0 -72.23018,-1.101294 -154.46229,-12.173121 l -5.0534,-2.220688 c 0.8371,0 1.51599,-0.682417 1.51599,-1.523891 0,-0.841507 -0.67889,-1.523881 -1.51599,-1.523881 z m 106.43111,3.808889 c 0,-2.804895 2.26268,-5.079553 5.05297,-5.079553 2.7903,0 5.05302,2.274658 5.05302,5.079553 0,2.804882 -2.26272,5.07958 -5.05302,5.07958 -2.79029,0 -5.05297,-2.274698 -5.05297,-5.07958 z m 26.01937,0 c 0,-2.804895 2.26271,-5.079553 5.05301,-5.079553 2.7903,0 5.05312,2.274658 5.05312,5.079553 0,2.804882 -2.26282,5.07958 -5.05312,5.07958 -2.7903,0 -5.05301,-2.274698 -5.05301,-5.07958 z"
       style="display:inline;fill:none;stroke:#ff171b;stroke-width:0.19999;stroke-linecap:butt;stroke-linejoin:miter;stroke-miterlimit:22.9256;stroke-dasharray:none;stroke-opacity:1"
       id="path2257-3-8" />
    <text
       xml:space="preserve"
       style="font-style:normal;font-weight:normal;font-size:10.5833px;line-height:1.25;font-family:sans-serif;fill:#000000;fill-opacity:1;stroke:none;stroke-width:0.264583"
       x="264.3681"
       y="54.092628"
       id="text21210-4"><tspan
         sodipodi:role="line"
         id="tspan21208-5"
         style="stroke-width:0.264583"
         x="264.3681"
         y="54.092628">1</tspan></text>
    <text
       xml:space="preserve"
       style="font-style:normal;font-weight:normal;font-size:10.5833px;line-height:1.25;font-family:sans-serif;fill:#000000;fill-opacity:1;stroke:none;stroke-width:0.264583"
       x="252.14828"
       y="22.532822"
       id="text22456-0"><tspan
         sodipodi:role="line"
         id="tspan22454-8"
         style="stroke-width:0.264583"
         x="252.14828"
         y="22.532822">1</tspan></text>
    <path
       d="M 341.09322,77.810826 C 258.86109,66.738919 222.4805,65.637625 186.63091,65.637625 l -9.36731,0.0644 v 31.83544 l 9.36731,-0.0644 c 35.84959,0 72.23018,-1.101294 154.46231,-12.173121 l 5.0534,-2.220688 c -0.8371,0 -1.51599,-0.682414 -1.51599,-1.523891 0,-0.841504 0.67889,-1.523881 1.51599,-1.523881 z m -106.43113,3.808889 c 0,-2.804892 -2.26268,-5.07955 -5.05297,-5.07955 -2.7903,0 -5.05302,2.274658 -5.05302,5.07955 0,2.804885 2.26272,5.079583 5.05302,5.079583 2.79029,0 5.05297,-2.274698 5.05297,-5.079583 z m -26.01937,0 c 0,-2.804892 -2.26271,-5.07955 -5.05301,-5.07955 -2.7903,0 -5.05312,2.274658 -5.05312,5.07955 0,2.804885 2.26282,5.079583 5.05312,5.079583 2.7903,0 5.05301,-2.274698 5.05301,-5.079583 z"
       style="display:inline;fill:none;stroke:#ff171b;stroke-width:0.19999;stroke-linecap:butt;stroke-linejoin:miter;stroke-miterlimit:22.9256;stroke-dasharray:none;stroke-opacity:1"
       id="path2257-8-1" />
    <text
       xml:space="preserve"
       style="font-style:normal;font-weight:normal;font-size:10.5833px;line-height:1.25;font-family:sans-serif;fill:#000000;fill-opacity:1;stroke:none;stroke-width:0.264583"
       x="252.7159"
       y="84.715744"
       id="text22456-6-1"><tspan
         sodipodi:role="line"
         id="tspan22454-1-5"
         style="stroke-width:0.264583"
         x="252.7159"
         y="84.715744">1</tspan></text>
    <path
       d="M 513.6403,16.123987 C 431.40819,5.052083 395.0276,3.9507896 359.17801,3.9507896 l -9.36731,0.0644 V 35.850626 l 9.36731,-0.0644 c 35.84959,0 72.23018,-1.101294 154.46229,-12.173121 l 5.0534,-2.220688 c -0.8371,0 -1.51599,-0.682417 -1.51599,-1.523891 0,-0.841504 0.67889,-1.523881 1.51599,-1.523881 z m -106.43111,3.808889 c 0,-2.804895 -2.26268,-5.079553 -5.05297,-5.079553 -2.7903,0 -5.05302,2.274658 -5.05302,5.079553 0,2.804885 2.26272,5.07958 5.05302,5.07958 2.79029,0 5.05297,-2.274695 5.05297,-5.07958 z m -26.01937,0 c 0,-2.804895 -2.26271,-5.079553 -5.05301,-5.079553 -2.7903,0 -5.05312,2.274658 -5.05312,5.079553 0,2.804885 2.26282,5.07958 5.05312,5.07958 2.7903,0 5.05301,-2.274695 5.05301,-5.07958 z"
       style="display:inline;fill:none;stroke:#ff171b;stroke-width:0.19999;stroke-linecap:butt;stroke-linejoin:miter;stroke-miterlimit:22.9256;stroke-dasharray:none;stroke-opacity:1"
       id="path2257-9" />
    <path
       d="M 355.21022,47.917147 C 437.44233,36.84524 473.82292,35.743946 509.67251,35.743946 l 9.36731,0.0644 v 31.83544 l -9.36731,-0.0644 c -35.84959,0 -72.23018,-1.101294 -154.46229,-12.173121 l -5.0534,-2.220688 c 0.8371,0 1.51599,-0.682417 1.51599,-1.523891 0,-0.841507 -0.67889,-1.523881 -1.51599,-1.523881 z m 106.43111,3.808889 c 0,-2.804895 2.26268,-5.079553 5.05297,-5.079553 2.7903,0 5.05302,2.274658 5.05302,5.079553 0,2.804882 -2.26272,5.07958 -5.05302,5.07958 -2.79029,0 -5.05297,-2.274698 -5.05297,-5.07958 z m 26.01937,0 c 0,-2.804895 2.26271,-5.079553 5.05301,-5.079553 2.7903,0 5.05312,2.274658 5.05312,5.079553 0,2.804882 -2.26282,5.07958 -5.05312,5.07958 -2.7903,0 -5.05301,-2.274698 -5.05301,-5.07958 z"
       style="display:inline;fill:none;stroke:#ff171b;stroke-width:0.19999;stroke-linecap:butt;stroke-linejoin:miter;stroke-miterlimit:22.9256;stroke-dasharray:none;stroke-opacity:1"
       id="path2257-3-2" />
    <text
       xml:space="preserve"
       style="font-style:normal;font-weight:normal;font-size:10.5833px;line-height:1.25;font-family:sans-serif;fill:#000000;fill-opacity:1;stroke:none;stroke-width:0.264583"
       x="437.48526"
       y="54.587982"
       id="text21210-48"><tspan
         sodipodi:role="line"
         id="tspan21208-3"
         style="stroke-width:0.264583"
         x="437.48526"
         y="54.587982">1</tspan></text>
    <text
       xml:space="preserve"
       style="font-style:normal;font-weight:normal;font-size:10.5833px;line-height:1.25;font-family:sans-serif;fill:#000000;fill-opacity:1;stroke:none;stroke-width:0.264583"
       x="425.26566"
       y="23.027939"
       id="text22456-9"><tspan
         sodipodi:role="line"
         id="tspan22454-3"
         style="stroke-width:0.264583"
         x="425.26566"
         y="23.027939">1</tspan></text>
    <path
       d="M 514.20793,78.305833 C 431.9758,67.233926 395.59521,66.132635 359.74562,66.132635 l -9.36731,0.0644 v 31.835447 l 9.36731,-0.0644 c 35.84959,0 72.23018,-1.101294 154.46231,-12.173121 l 5.0534,-2.220685 c -0.8371,0 -1.51599,-0.682417 -1.51599,-1.523894 0,-0.841504 0.67889,-1.523881 1.51599,-1.523881 z M 407.7768,82.114722 c 0,-2.804892 -2.26268,-5.07955 -5.05297,-5.07955 -2.7903,0 -5.05302,2.274658 -5.05302,5.07955 0,2.804885 2.26272,5.079583 5.05302,5.079583 2.79029,0 5.05297,-2.274698 5.05297,-5.079583 z m -26.01937,0 c 0,-2.804892 -2.26271,-5.07955 -5.05301,-5.07955 -2.7903,0 -5.05312,2.274658 -5.05312,5.07955 0,2.804885 2.26282,5.079583 5.05312,5.079583 2.7903,0 5.05301,-2.274698 5.05301,-5.079583 z"
       style="display:inline;fill:none;stroke:#ff171b;stroke-width:0.19999;stroke-linecap:butt;stroke-linejoin:miter;stroke-miterlimit:22.9256;stroke-dasharray:none;stroke-opacity:1"
       id="path2257-8-5" />
    <text
       xml:space="preserve"
       style="font-style:normal;font-weight:normal;font-size:10.5833px;line-height:1.25;font-family:sans-serif;fill:#000000;fill-opacity:1;stroke:none;stroke-width:0.264583"
       x="425.83328"
       y="85.211029"
       id="text22456-6-0"><tspan
         sodipodi:role="line"
         id="tspan22454-1-4"
         style="stroke-width:0.264583"
         x="425.83328"
         y="85.211029">1</tspan></text>
    <path
       d="M 687.05429,16.733284 C 604.82218,5.6614097 568.44159,4.5601163 532.592,4.5601163 l -9.36731,0.0644 V 36.459813 l 9.36731,-0.0644 c 35.84959,0 72.23018,-1.101294 154.46229,-12.173051 l 5.0534,-2.220678 c -0.8371,0 -1.51599,-0.682417 -1.51599,-1.523881 0,-0.841507 0.67889,-1.523871 1.51599,-1.523871 z m -106.43111,3.808869 c 0,-2.804885 -2.26268,-5.079523 -5.05297,-5.079523 -2.7903,0 -5.05302,2.274638 -5.05302,5.079523 0,2.804862 2.26272,5.07955 5.05302,5.07955 2.79029,0 5.05297,-2.274688 5.05297,-5.07955 z m -26.01937,0 c 0,-2.804885 -2.26271,-5.079523 -5.05301,-5.079523 -2.7903,0 -5.05312,2.274638 -5.05312,5.079523 0,2.804862 2.26282,5.07955 5.05312,5.07955 2.7903,0 5.05301,-2.274688 5.05301,-5.07955 z"
       style="display:inline;fill:none;stroke:#ff171b;stroke-width:0.19999;stroke-linecap:butt;stroke-linejoin:miter;stroke-miterlimit:22.9256;stroke-dasharray:none;stroke-opacity:1"
       id="path2257-4-4" />
    <path
       d="M 528.62421,48.526264 C 610.85632,37.454417 647.23691,36.353133 683.0865,36.353133 l 9.36731,0.0644 V 68.25279 l -9.36731,-0.0644 c -35.84959,0 -72.23018,-1.101294 -154.46229,-12.173051 l -5.0534,-2.220678 c 0.8371,0 1.51599,-0.682417 1.51599,-1.523881 0,-0.841507 -0.67889,-1.523871 -1.51599,-1.523871 z m 106.43111,3.808869 c 0,-2.804885 2.26268,-5.079523 5.05297,-5.079523 2.7903,0 5.05302,2.274638 5.05302,5.079523 0,2.804862 -2.26272,5.07955 -5.05302,5.07955 -2.79029,0 -5.05297,-2.274688 -5.05297,-5.07955 z m 26.01937,0 c 0,-2.804885 2.26271,-5.079523 5.05301,-5.079523 2.7903,0 5.05312,2.274638 5.05312,5.079523 0,2.804862 -2.26282,5.07955 -5.05312,5.07955 -2.7903,0 -5.05301,-2.274688 -5.05301,-5.07955 z"
       style="display:inline;fill:none;stroke:#ff171b;stroke-width:0.19999;stroke-linecap:butt;stroke-linejoin:miter;stroke-miterlimit:22.9256;stroke-dasharray:none;stroke-opacity:1"
       id="path2257-3-8-3" />
    <text
       xml:space="preserve"
       style="font-style:normal;font-weight:normal;font-size:10.5833px;line-height:1.25;font-family:sans-serif;fill:#000000;fill-opacity:1;stroke:none;stroke-width:0.264583"
       x="610.89807"
       y="55.197517"
       id="text21210-4-7"><tspan
         sodipodi:role="line"
         id="tspan21208-5-5"
         style="stroke-width:0.264583"
         x="610.89807"
         y="55.197517">1</tspan></text>
    <text
       xml:space="preserve"
       style="font-style:normal;font-weight:normal;font-size:10.5833px;line-height:1.25;font-family:sans-serif;fill:#000000;fill-opacity:1;stroke:none;stroke-width:0.264583"
       x="598.67822"
       y="23.637222"
       id="text22456-0-5"><tspan
         sodipodi:role="line"
         id="tspan22454-8-2"
         style="stroke-width:0.264583"
         x="598.67822"
         y="23.637222">1</tspan></text>
    <path
       d="M 687.62192,78.91478 C 605.38979,67.842933 569.0092,66.741639 533.15961,66.741639 l -9.36731,0.0644 v 31.83525 l 9.36731,-0.0644 c 35.84959,0 72.23018,-1.101284 154.46231,-12.173051 l 5.0534,-2.220668 c -0.8371,0 -1.51599,-0.682414 -1.51599,-1.523891 0,-0.841494 0.67889,-1.523871 1.51599,-1.523871 z m -106.43113,3.808869 c 0,-2.804885 -2.26268,-5.07953 -5.05297,-5.07953 -2.7903,0 -5.05302,2.274645 -5.05302,5.07953 0,2.804865 2.26272,5.079553 5.05302,5.079553 2.79029,0 5.05297,-2.274688 5.05297,-5.079553 z m -26.01937,0 c 0,-2.804885 -2.26271,-5.07953 -5.05301,-5.07953 -2.7903,0 -5.05312,2.274645 -5.05312,5.07953 0,2.804865 2.26282,5.079553 5.05312,5.079553 2.7903,0 5.05301,-2.274688 5.05301,-5.079553 z"
       style="display:inline;fill:none;stroke:#ff171b;stroke-width:0.19999;stroke-linecap:butt;stroke-linejoin:miter;stroke-miterlimit:22.9256;stroke-dasharray:none;stroke-opacity:1"
       id="path2257-8-1-1" />
    <text
       xml:space="preserve"
       style="font-style:normal;font-weight:normal;font-size:10.5833px;line-height:1.25;font-family:sans-serif;fill:#000000;fill-opacity:1;stroke:none;stroke-width:0.264583"
       x="599.24585"
       y="85.821053"
       id="text22456-6-1-3"><tspan
         sodipodi:role="line"
         id="tspan22454-1-5-5"
         style="stroke-width:0.264583"
         x="599.24585"
         y="85.821053">1</tspan></text>
    <path
       d="M 859.17235,14.888843 C 776.94024,3.8170396 740.55965,2.7157562 704.71006,2.7157562 l -9.36731,0.0644 V 34.615262 l 9.36731,-0.0644 c 35.84959,0 72.23018,-1.101284 154.46229,-12.172981 l 5.0534,-2.220668 c -0.8371,0 -1.51599,-0.682404 -1.51599,-1.523871 0,-0.841494 0.67889,-1.523861 1.51599,-1.523861 z m -106.43111,3.808849 c 0,-2.804865 -2.26268,-5.07949 -5.05297,-5.07949 -2.7903,0 -5.05302,2.274625 -5.05302,5.07949 0,2.804855 2.26272,5.079523 5.05302,5.079523 2.79029,0 5.05297,-2.274668 5.05297,-5.079523 z m -26.01937,0 c 0,-2.804865 -2.26271,-5.07949 -5.05301,-5.07949 -2.7903,0 -5.05312,2.274625 -5.05312,5.07949 0,2.804855 2.26282,5.079523 5.05312,5.079523 2.7903,0 5.05301,-2.274668 5.05301,-5.079523 z"
       style="display:inline;fill:none;stroke:#ff171b;stroke-width:0.19999;stroke-linecap:butt;stroke-linejoin:miter;stroke-miterlimit:22.9256;stroke-dasharray:none;stroke-opacity:1"
       id="path2257-4-4-9" />
    <path
       d="M 700.74227,46.681643 C 782.97438,35.609866 819.35497,34.508582 855.20456,34.508582 l 9.36731,0.0644 v 31.83508 l -9.36731,-0.0644 c -35.84959,0 -72.23018,-1.101284 -154.46229,-12.172981 l -5.0534,-2.220668 c 0.8371,0 1.51599,-0.682414 1.51599,-1.523871 0,-0.841504 -0.67889,-1.523861 -1.51599,-1.523861 z m 106.43111,3.808849 c 0,-2.804865 2.26268,-5.07949 5.05297,-5.07949 2.7903,0 5.05302,2.274625 5.05302,5.07949 0,2.804855 -2.26272,5.07952 -5.05302,5.07952 -2.79029,0 -5.05297,-2.274665 -5.05297,-5.07952 z m 26.01937,0 c 0,-2.804865 2.26271,-5.07949 5.05301,-5.07949 2.7903,0 5.05312,2.274625 5.05312,5.07949 0,2.804855 -2.26282,5.07952 -5.05312,5.07952 -2.7903,0 -5.05301,-2.274665 -5.05301,-5.07952 z"
       style="display:inline;fill:none;stroke:#ff171b;stroke-width:0.19999;stroke-linecap:butt;stroke-linejoin:miter;stroke-miterlimit:22.9256;stroke-dasharray:none;stroke-opacity:1"
       id="path2257-3-8-3-3" />
    <text
       xml:space="preserve"
       style="font-style:normal;font-weight:normal;font-size:10.5833px;line-height:1.25;font-family:sans-serif;fill:#000000;fill-opacity:1;stroke:none;stroke-width:0.264583"
       x="783.01666"
       y="53.353615"
       id="text21210-4-7-8"><tspan
         sodipodi:role="line"
         id="tspan21208-5-5-5"
         style="stroke-width:0.264583"
         x="783.01666"
         y="53.353615">1</tspan></text>
    <text
       xml:space="preserve"
       style="font-style:normal;font-weight:normal;font-size:10.5833px;line-height:1.25;font-family:sans-serif;fill:#000000;fill-opacity:1;stroke:none;stroke-width:0.264583"
       x="770.79681"
       y="21.792915"
       id="text22456-0-5-2"><tspan
         sodipodi:role="line"
         id="tspan22454-8-2-1"
         style="stroke-width:0.264583"
         x="770.79681"
         y="21.792915">1</tspan></text>
    <path
       d="M 859.73998,77.069992 C 777.50785,65.998205 741.12726,64.896921 705.27767,64.896921 l -9.36731,0.0644 v 31.83507 l 9.36731,-0.0644 c 35.84959,0 72.23018,-1.101284 154.46231,-12.172981 l 5.0534,-2.220658 c -0.8371,0 -1.51599,-0.682407 -1.51599,-1.523881 0,-0.841497 0.67889,-1.523861 1.51599,-1.523861 z m -106.43113,3.808849 c 0,-2.804875 -2.26268,-5.079503 -5.05297,-5.079503 -2.7903,0 -5.05302,2.274628 -5.05302,5.079503 0,2.804842 2.26272,5.07952 5.05302,5.07952 2.79029,0 5.05297,-2.274678 5.05297,-5.07952 z m -26.01937,0 c 0,-2.804875 -2.26271,-5.079503 -5.05301,-5.079503 -2.7903,0 -5.05312,2.274628 -5.05312,5.079503 0,2.804842 2.26282,5.07952 5.05312,5.07952 2.7903,0 5.05301,-2.274678 5.05301,-5.07952 z"
       style="display:inline;fill:none;stroke:#ff171b;stroke-width:0.19999;stroke-linecap:butt;stroke-linejoin:miter;stroke-miterlimit:22.9256;stroke-dasharray:none;stroke-opacity:1"
       id="path2257-8-1-1-2" />
    <text
       xml:space="preserve"
       style="font-style:normal;font-weight:normal;font-size:10.5833px;line-height:1.25;font-family:sans-serif;fill:#000000;fill-opacity:1;stroke:none;stroke-width:0.264583"
       x="771.36444"
       y="83.977524"
       id="text22456-6-1-3-2"><tspan
         sodipodi:role="line"
         id="tspan22454-1-5-5-3"
         style="stroke-width:0.264583"
         x="771.36444"
         y="83.977524">1</tspan></text>
  </g>
</svg>
