<?xml version="1.0" encoding="UTF-8" standalone="no"?>
<!-- Created with Inkscape (http://www.inkscape.org/) -->

<svg
   width="1000mm"
   height="100mm"
   viewBox="0 0 1000 100"
   version="1.1"
   id="svg3003"
   inkscape:version="1.1 (c68e22c387, 2021-05-23)"
   sodipodi:docname="05_Balsa_4mm_Nervure2.svg"
   xmlns:inkscape="http://www.inkscape.org/namespaces/inkscape"
   xmlns:sodipodi="http://sodipodi.sourceforge.net/DTD/sodipodi-0.dtd"
   xmlns="http://www.w3.org/2000/svg"
   xmlns:svg="http://www.w3.org/2000/svg">
  <sodipodi:namedview
     id="namedview3005"
     pagecolor="#ffffff"
     bordercolor="#666666"
     borderopacity="1.0"
     inkscape:pageshadow="2"
     inkscape:pageopacity="0.0"
     inkscape:pagecheckerboard="0"
     inkscape:document-units="mm"
     showgrid="false"
     inkscape:zoom="0.62573958"
     inkscape:cx="1757.1207"
     inkscape:cy="318.82273"
     inkscape:window-width="2560"
     inkscape:window-height="1377"
     inkscape:window-x="-8"
     inkscape:window-y="-8"
     inkscape:window-maximized="1"
     inkscape:current-layer="layer1" />
  <defs
     id="defs3000" />
  <g
     inkscape:label="Calque 1"
     inkscape:groupmode="layer"
     id="layer1">
    <path
       d="m 73.486143,18.931362 c 0,-2.840195 -2.244958,-5.143683 -5.013263,-5.143683 -2.768195,0 -5.01326,2.303488 -5.01326,5.143683 0,2.840162 2.245065,5.14365 5.01326,5.14365 2.768305,0 5.013263,-2.303488 5.013263,-5.14365 z m -36.760783,0 c 0,-2.840195 -2.245068,-5.143683 -5.01337,-5.143683 -2.768155,0 -5.013263,2.303488 -5.013263,5.143683 0,2.840162 2.245108,5.14365 5.013263,5.14365 2.768302,0 5.01337,-2.303488 5.01337,-5.14365 z m 164.72006,3.855876 C 132.89991,32.656454 70.534368,36.69786 1.4588061,36.81265 V 1.0129691 C 70.534368,1.0907691 132.89991,5.132223 201.44542,15.001473 l 5.01332,2.375878 c -0.83061,0 -1.50399,0.679304 -1.50399,1.517011 0,0.837694 0.67338,1.516891 1.50399,1.516891 z"
       style="display:inline;fill:none;stroke:#ff171b;stroke-width:0.19999;stroke-linecap:butt;stroke-linejoin:miter;stroke-miterlimit:22.9256;stroke-dasharray:none;stroke-opacity:1"
       id="path2255" />
    <path
       d="m 134.03371,49.631268 c 0,-2.840185 2.24497,-5.143663 5.01329,-5.143663 2.76821,0 5.01329,2.303478 5.01329,5.143663 0,2.840142 -2.24508,5.14362 -5.01329,5.14362 -2.76832,0 -5.01329,-2.303478 -5.01329,-5.14362 z m 36.76102,0 c 0,-2.840185 2.24508,-5.143663 5.0134,-5.143663 2.76817,0 5.01329,2.303478 5.01329,5.143663 0,2.840142 -2.24512,5.14362 -5.01329,5.14362 -2.76832,0 -5.0134,-2.303478 -5.0134,-5.14362 z M 6.0745564,53.487114 C 74.619934,63.35628 136.9855,67.397656 206.06149,67.512446 V 31.71297 C 136.9855,31.79077 74.619934,35.832206 6.0745564,45.701399 l -5.0133103,2.375868 c 0.8306067,0 1.5039834,0.679294 1.5039834,1.517001 0,0.837684 -0.6733767,1.516881 -1.5039834,1.516881 z"
       style="display:inline;fill:none;stroke:#ff171b;stroke-width:0.19999;stroke-linecap:butt;stroke-linejoin:miter;stroke-miterlimit:22.9256;stroke-dasharray:none;stroke-opacity:1"
       id="path2255-0" />
    <text
       xml:space="preserve"
       style="font-style:normal;font-weight:normal;font-size:10.5833px;line-height:1.25;font-family:sans-serif;fill:#000000;fill-opacity:1;stroke:none;stroke-width:0.264583"
       x="95.928802"
       y="53.350739"
       id="text24374"><tspan
         sodipodi:role="line"
         id="tspan24372"
         style="stroke-width:0.264583"
         x="95.928802"
         y="53.350739">2</tspan></text>
    <text
       xml:space="preserve"
       style="font-style:normal;font-weight:normal;font-size:10.5833px;line-height:1.25;font-family:sans-serif;fill:#000000;fill-opacity:1;stroke:none;stroke-width:0.264583"
       x="99.410126"
       y="22.415155"
       id="text25818"><tspan
         sodipodi:role="line"
         id="tspan25816"
         style="stroke-width:0.264583"
         x="99.410126"
         y="22.415155">2</tspan></text>
    <path
       d="m 72.993086,80.368428 c 0,-2.840195 -2.244938,-5.143683 -5.013233,-5.143683 -2.768175,0 -5.013233,2.303488 -5.013233,5.143683 0,2.840162 2.245058,5.14365 5.013233,5.14365 2.768295,0 5.013233,-2.303488 5.013233,-5.14365 z m -36.760573,0 c 0,-2.840195 -2.245058,-5.143683 -5.013343,-5.143683 -2.768132,0 -5.01323,2.303488 -5.01323,5.143683 0,2.840162 2.245098,5.14365 5.01323,5.14365 2.768285,0 5.013343,-2.303488 5.013343,-5.14365 z M 200.95222,84.224304 C 132.40671,94.09352 70.041331,98.134922 0.96616943,98.249712 V 62.450034 C 70.041331,62.527834 132.40671,66.569288 200.95222,76.438539 l 5.01332,2.375878 c -0.83061,0 -1.50399,0.679304 -1.50399,1.517011 0,0.837694 0.67338,1.516891 1.50399,1.516891 z"
       style="display:inline;fill:none;stroke:#ff171b;stroke-width:0.19999;stroke-linecap:butt;stroke-linejoin:miter;stroke-miterlimit:22.9256;stroke-dasharray:none;stroke-opacity:1"
       id="path2255-6" />
    <text
       xml:space="preserve"
       style="font-style:normal;font-weight:normal;font-size:10.5833px;line-height:1.25;font-family:sans-serif;fill:#000000;fill-opacity:1;stroke:none;stroke-width:0.264583"
       x="98.918816"
       y="83.852234"
       id="text25818-9"><tspan
         sodipodi:role="line"
         id="tspan25816-4"
         style="stroke-width:0.264583"
         x="98.918816"
         y="83.852234">2</tspan></text>
    <path
       d="m 281.55345,19.532015 c 0,-2.840195 -2.24496,-5.143683 -5.01326,-5.143683 -2.7682,0 -5.01326,2.303488 -5.01326,5.143683 0,2.840162 2.24506,5.14365 5.01326,5.14365 2.7683,0 5.01326,-2.303488 5.01326,-5.14365 z m -36.76078,0 c 0,-2.840195 -2.24507,-5.143683 -5.01337,-5.143683 -2.76816,0 -5.01326,2.303488 -5.01326,5.143683 0,2.840162 2.2451,5.14365 5.01326,5.14365 2.7683,0 5.01337,-2.303488 5.01337,-5.14365 z m 164.72006,3.855876 C 340.96722,33.257081 278.60168,37.298457 209.52612,37.413247 V 1.6136268 c 69.07556,0.0778 131.4411,4.1192519 199.98661,13.9884992 l 5.01332,2.375878 c -0.83061,0 -1.50399,0.679304 -1.50399,1.517011 0,0.837694 0.67338,1.516891 1.50399,1.516891 z"
       style="display:inline;fill:none;stroke:#ff171b;stroke-width:0.19999;stroke-linecap:butt;stroke-linejoin:miter;stroke-miterlimit:22.9256;stroke-dasharray:none;stroke-opacity:1"
       id="path2255-2" />
    <path
       d="m 342.10102,50.231795 c 0,-2.840165 2.24497,-5.143633 5.01329,-5.143633 2.76821,0 5.01329,2.303468 5.01329,5.143633 0,2.840132 -2.24508,5.14359 -5.01329,5.14359 -2.76832,0 -5.01329,-2.303458 -5.01329,-5.14359 z m 36.76102,0 c 0,-2.840165 2.24508,-5.143633 5.0134,-5.143633 2.76817,0 5.01329,2.303468 5.01329,5.143633 0,2.840132 -2.24512,5.14359 -5.01329,5.14359 -2.76832,0 -5.0134,-2.303458 -5.0134,-5.14359 z m -164.72017,3.855826 c 68.54537,9.869106 130.91094,13.910462 199.98693,14.025252 V 32.313594 c -69.07599,0.0778 -131.44156,4.119219 -199.98693,13.988352 l -5.01331,2.375855 c 0.8306,0 1.50398,0.679297 1.50398,1.516994 0,0.837684 -0.67338,1.516871 -1.50398,1.516871 z"
       style="display:inline;fill:none;stroke:#ff171b;stroke-width:0.19999;stroke-linecap:butt;stroke-linejoin:miter;stroke-miterlimit:22.9256;stroke-dasharray:none;stroke-opacity:1"
       id="path2255-0-0" />
    <text
       xml:space="preserve"
       style="font-style:normal;font-weight:normal;font-size:10.5833px;line-height:1.25;font-family:sans-serif;fill:#000000;fill-opacity:1;stroke:none;stroke-width:0.264583"
       x="303.99594"
       y="53.951431"
       id="text24374-5"><tspan
         sodipodi:role="line"
         id="tspan24372-7"
         style="stroke-width:0.264583"
         x="303.99594"
         y="53.951431">2</tspan></text>
    <text
       xml:space="preserve"
       style="font-style:normal;font-weight:normal;font-size:10.5833px;line-height:1.25;font-family:sans-serif;fill:#000000;fill-opacity:1;stroke:none;stroke-width:0.264583"
       x="307.47736"
       y="23.015785"
       id="text25818-8"><tspan
         sodipodi:role="line"
         id="tspan25816-0"
         style="stroke-width:0.264583"
         x="307.47736"
         y="23.015785">2</tspan></text>
    <path
       d="m 281.0604,80.968778 c 0,-2.840172 -2.24494,-5.14365 -5.01324,-5.14365 -2.76817,0 -5.01323,2.303478 -5.01323,5.14365 0,2.840145 2.24506,5.143623 5.01323,5.143623 2.7683,0 5.01324,-2.303478 5.01324,-5.143623 z m -36.76058,0 c 0,-2.840172 -2.24506,-5.14365 -5.01334,-5.14365 -2.76813,0 -5.01323,2.303478 -5.01323,5.14365 0,2.840145 2.2451,5.143623 5.01323,5.143623 2.76828,0 5.01334,-2.303478 5.01334,-5.143623 z m 164.71971,3.855859 C 340.47402,94.693793 278.10864,98.735179 209.03348,98.849969 V 63.05049 c 69.07516,0.0778 131.44054,4.119229 199.98605,13.988422 l 5.01332,2.375865 c -0.83061,0 -1.50399,0.679307 -1.50399,1.517004 0,0.837694 0.67338,1.516881 1.50399,1.516881 z"
       style="display:inline;fill:none;stroke:#ff171b;stroke-width:0.19999;stroke-linecap:butt;stroke-linejoin:miter;stroke-miterlimit:22.9256;stroke-dasharray:none;stroke-opacity:1"
       id="path2255-6-3" />
    <text
       xml:space="preserve"
       style="font-style:normal;font-weight:normal;font-size:10.5833px;line-height:1.25;font-family:sans-serif;fill:#000000;fill-opacity:1;stroke:none;stroke-width:0.264583"
       x="306.98605"
       y="84.453308"
       id="text25818-9-0"><tspan
         sodipodi:role="line"
         id="tspan25816-4-1"
         style="stroke-width:0.264583"
         x="306.98605"
         y="84.453308">2</tspan></text>
    <path
       d="m 489.914,19.664732 c 0,-2.840195 -2.24496,-5.143683 -5.01326,-5.143683 -2.7682,0 -5.01326,2.303488 -5.01326,5.143683 0,2.840162 2.24506,5.14365 5.01326,5.14365 2.7683,0 5.01326,-2.303488 5.01326,-5.14365 z m -36.76078,0 c 0,-2.840195 -2.24507,-5.143683 -5.01337,-5.143683 -2.76816,0 -5.01326,2.303488 -5.01326,5.143683 0,2.840162 2.2451,5.14365 5.01326,5.14365 2.7683,0 5.01337,-2.303488 5.01337,-5.14365 z m 164.72006,3.855876 C 549.32777,33.389824 486.96223,37.431227 417.88667,37.546017 V 1.7463438 c 69.07556,0.0778 131.4411,4.1192516 199.98661,13.9884992 l 5.01332,2.375878 c -0.83061,0 -1.50399,0.679304 -1.50399,1.517011 0,0.837694 0.67338,1.516891 1.50399,1.516891 z"
       style="display:inline;fill:none;stroke:#ff171b;stroke-width:0.19999;stroke-linecap:butt;stroke-linejoin:miter;stroke-miterlimit:22.9256;stroke-dasharray:none;stroke-opacity:1"
       id="path2255-8" />
    <path
       d="m 550.46157,50.364562 c 0,-2.840172 2.24497,-5.14363 5.01329,-5.14363 2.76821,0 5.01329,2.303458 5.01329,5.14363 0,2.840125 -2.24508,5.143593 -5.01329,5.143593 -2.76832,0 -5.01329,-2.303468 -5.01329,-5.143593 z m 36.76102,0 c 0,-2.840172 2.24508,-5.14363 5.0134,-5.14363 2.76817,0 5.01329,2.303458 5.01329,5.14363 0,2.840125 -2.24512,5.143593 -5.01329,5.143593 -2.76832,0 -5.0134,-2.303468 -5.0134,-5.143593 z m -164.72017,3.855819 c 68.54537,9.869113 130.91094,13.910472 199.98693,14.025262 V 32.44634 c -69.07599,0.0778 -131.44156,4.11924 -199.98693,13.988376 l -5.01331,2.375855 c 0.8306,0 1.50398,0.679287 1.50398,1.516991 0,0.837677 -0.67338,1.516874 -1.50398,1.516874 z"
       style="display:inline;fill:none;stroke:#ff171b;stroke-width:0.19999;stroke-linecap:butt;stroke-linejoin:miter;stroke-miterlimit:22.9256;stroke-dasharray:none;stroke-opacity:1"
       id="path2255-0-4" />
    <text
       xml:space="preserve"
       style="font-style:normal;font-weight:normal;font-size:10.5833px;line-height:1.25;font-family:sans-serif;fill:#000000;fill-opacity:1;stroke:none;stroke-width:0.264583"
       x="512.3584"
       y="54.084152"
       id="text24374-56"><tspan
         sodipodi:role="line"
         id="tspan24372-72"
         style="stroke-width:0.264583"
         x="512.3584"
         y="54.084152">2</tspan></text>
    <text
       xml:space="preserve"
       style="font-style:normal;font-weight:normal;font-size:10.5833px;line-height:1.25;font-family:sans-serif;fill:#000000;fill-opacity:1;stroke:none;stroke-width:0.264583"
       x="515.83972"
       y="23.148506"
       id="text25818-3"><tspan
         sodipodi:role="line"
         id="tspan25816-3"
         style="stroke-width:0.264583"
         x="515.83972"
         y="23.148506">2</tspan></text>
    <path
       d="m 489.42095,81.101548 c 0,-2.840182 -2.24494,-5.14366 -5.01324,-5.14366 -2.76817,0 -5.01323,2.303478 -5.01323,5.14366 0,2.840145 2.24506,5.14362 5.01323,5.14362 2.7683,0 5.01324,-2.303475 5.01324,-5.14362 z m -36.76058,0 c 0,-2.840182 -2.24506,-5.14366 -5.01334,-5.14366 -2.76813,0 -5.01323,2.303478 -5.01323,5.14366 0,2.840145 2.2451,5.14362 5.01323,5.14362 2.76828,0 5.01334,-2.303475 5.01334,-5.14362 z m 164.71971,3.855849 C 548.83457,94.82656 486.46919,98.867939 417.39403,98.982726 V 63.18325 c 69.07516,0.0778 131.44054,4.119236 199.98605,13.988432 l 5.01332,2.375865 c -0.83061,0 -1.50399,0.679297 -1.50399,1.517001 0,0.837687 0.67338,1.516881 1.50399,1.516881 z"
       style="display:inline;fill:none;stroke:#ff171b;stroke-width:0.19999;stroke-linecap:butt;stroke-linejoin:miter;stroke-miterlimit:22.9256;stroke-dasharray:none;stroke-opacity:1"
       id="path2255-6-4" />
    <text
       xml:space="preserve"
       style="font-style:normal;font-weight:normal;font-size:10.5833px;line-height:1.25;font-family:sans-serif;fill:#000000;fill-opacity:1;stroke:none;stroke-width:0.264583"
       x="515.34839"
       y="84.585915"
       id="text25818-9-03"><tspan
         sodipodi:role="line"
         id="tspan25816-4-7"
         style="stroke-width:0.264583"
         x="515.34839"
         y="84.585915">2</tspan></text>
    <path
       d="m 697.98131,19.736218 c 0,-2.840195 -2.24496,-5.143683 -5.01326,-5.143683 -2.7682,0 -5.01326,2.303488 -5.01326,5.143683 0,2.840162 2.24506,5.14365 5.01326,5.14365 2.7683,0 5.01326,-2.303488 5.01326,-5.14365 z m -36.76078,0 c 0,-2.840195 -2.24507,-5.143683 -5.01337,-5.143683 -2.76816,0 -5.01326,2.303488 -5.01326,5.143683 0,2.840162 2.2451,5.14365 5.01326,5.14365 2.7683,0 5.01337,-2.303488 5.01337,-5.14365 z m 164.72006,3.855876 c -68.54551,9.86919 -130.91105,13.910563 -199.98661,14.02535 V 1.8178348 c 69.07556,0.0778 131.4411,4.1192496 199.98661,13.9884942 l 5.01332,2.375878 c -0.83061,0 -1.50399,0.679304 -1.50399,1.517011 0,0.837694 0.67338,1.516891 1.50399,1.516891 z"
       style="display:inline;fill:none;stroke:#ff171b;stroke-width:0.19999;stroke-linecap:butt;stroke-linejoin:miter;stroke-miterlimit:22.9256;stroke-dasharray:none;stroke-opacity:1"
       id="path2255-2-9" />
    <path
       d="m 758.52888,50.435912 c 0,-2.840142 2.24497,-5.1436 5.01329,-5.1436 2.76821,0 5.01329,2.303458 5.01329,5.1436 0,2.840125 -2.24508,5.14357 -5.01329,5.14357 -2.76832,0 -5.01329,-2.303445 -5.01329,-5.14357 z m 36.76102,0 c 0,-2.840142 2.24508,-5.1436 5.0134,-5.1436 2.76817,0 5.01329,2.303458 5.01329,5.1436 0,2.840125 -2.24512,5.14357 -5.01329,5.14357 -2.76832,0 -5.0134,-2.303445 -5.0134,-5.14357 z M 630.56973,54.291721 C 699.1151,64.160774 761.48067,68.202103 830.55666,68.31689 V 32.517797 c -69.07599,0.0778 -131.44156,4.119213 -199.98693,13.988299 l -5.01331,2.375835 c 0.8306,0 1.50398,0.679297 1.50398,1.516991 0,0.837677 -0.67338,1.516861 -1.50398,1.516861 z"
       style="display:inline;fill:none;stroke:#ff171b;stroke-width:0.19999;stroke-linecap:butt;stroke-linejoin:miter;stroke-miterlimit:22.9256;stroke-dasharray:none;stroke-opacity:1"
       id="path2255-0-0-7" />
    <text
       xml:space="preserve"
       style="font-style:normal;font-weight:normal;font-size:10.5833px;line-height:1.25;font-family:sans-serif;fill:#000000;fill-opacity:1;stroke:none;stroke-width:0.264583"
       x="720.42554"
       y="54.155632"
       id="text24374-5-8"><tspan
         sodipodi:role="line"
         id="tspan24372-7-8"
         style="stroke-width:0.264583"
         x="720.42554"
         y="54.155632">2</tspan></text>
    <text
       xml:space="preserve"
       style="font-style:normal;font-weight:normal;font-size:10.5833px;line-height:1.25;font-family:sans-serif;fill:#000000;fill-opacity:1;stroke:none;stroke-width:0.264583"
       x="723.90692"
       y="23.219971"
       id="text25818-8-4"><tspan
         sodipodi:role="line"
         id="tspan25816-0-6"
         style="stroke-width:0.264583"
         x="723.90692"
         y="23.219971">2</tspan></text>
    <path
       d="m 697.48826,81.172728 c 0,-2.840155 -2.24494,-5.14362 -5.01324,-5.14362 -2.76817,0 -5.01323,2.303465 -5.01323,5.14362 0,2.840125 2.24506,5.14359 5.01323,5.14359 2.7683,0 5.01324,-2.303465 5.01324,-5.14359 z m -36.76058,0 c 0,-2.840155 -2.24506,-5.14362 -5.01334,-5.14362 -2.76813,0 -5.01323,2.303465 -5.01323,5.14362 0,2.840125 2.2451,5.14359 5.01323,5.14359 2.76828,0 5.01334,-2.303465 5.01334,-5.14359 z m 164.71971,3.855839 C 756.90188,94.89766 694.5365,98.939029 625.46134,99.053816 V 63.25454 c 69.07516,0.0778 131.44054,4.119206 199.98605,13.988342 l 5.01332,2.375855 c -0.83061,0 -1.50399,0.679297 -1.50399,1.516991 0,0.837697 0.67338,1.516871 1.50399,1.516871 z"
       style="display:inline;fill:none;stroke:#ff171b;stroke-width:0.19999;stroke-linecap:butt;stroke-linejoin:miter;stroke-miterlimit:22.9256;stroke-dasharray:none;stroke-opacity:1"
       id="path2255-6-3-0" />
    <text
       xml:space="preserve"
       style="font-style:normal;font-weight:normal;font-size:10.5833px;line-height:1.25;font-family:sans-serif;fill:#000000;fill-opacity:1;stroke:none;stroke-width:0.264583"
       x="723.41565"
       y="84.657829"
       id="text25818-9-0-4"><tspan
         sodipodi:role="line"
         id="tspan25816-4-1-7"
         style="stroke-width:0.264583"
         x="723.41565"
         y="84.657829">2</tspan></text>
    <path
       d="m 839.22455,32.086867 c 15.9597,-0.523617 27.95959,-5.028183 30.60274,-12.491861 l -4.60293,0.003 v -2.999972 l 4.60253,0.002 C 867.18024,9.1280766 855.16093,4.5488063 839.23094,4.1267196 l -0.006,2.9681702 h -4.00001 V 29.087075 h 4.00001 v 2.999902 z"
       style="display:inline;fill:none;stroke:#ff171b;stroke-width:0.19999;stroke-linecap:butt;stroke-linejoin:miter;stroke-miterlimit:22.9256;stroke-dasharray:none;stroke-opacity:1"
       id="path3959-9-4-1" />
    <path
       d="m 906.11354,32.670124 c -15.9597,-0.523617 -27.9599,-5.028183 -30.60319,-12.491861 l 4.60318,0.003 v -2.999972 l -4.60279,0.002 C 878.15752,9.7113433 890.17716,5.132063 906.10715,4.709976 l 0.006,2.9681805 h 4.00001 V 29.670329 h -4.00001 v 2.999905 z"
       style="display:inline;fill:none;stroke:#ff171b;stroke-width:0.19999;stroke-linecap:butt;stroke-linejoin:miter;stroke-miterlimit:22.9256;stroke-dasharray:none;stroke-opacity:1"
       id="path3959-9-3-7" />
    <path
       d="m 838.33076,63.31333 c 15.9597,-0.523617 27.95959,-5.028183 30.60274,-12.491861 l -4.60293,0.003 v -2.999972 l 4.60253,0.002 C 866.28645,40.354539 854.26714,35.775266 838.33715,35.353179 l -0.006,2.968172 h -4.00001 v 21.992184 h 4.00001 v 2.999905 z"
       style="display:inline;fill:none;stroke:#ff171b;stroke-width:0.19999;stroke-linecap:butt;stroke-linejoin:miter;stroke-miterlimit:22.9256;stroke-dasharray:none;stroke-opacity:1"
       id="path3959-9-4-1-3" />
    <path
       d="M 905.21818,63.896587 C 889.25938,63.37297 877.25985,58.868404 874.61656,51.404726 l 4.60309,0.003 v -2.999972 l -4.6027,0.002 c 2.64678,-7.471948 14.66583,-12.051231 30.59483,-12.473318 l 0.01,2.968182 h 3.99989 v 21.992174 h -3.99989 v 2.999905 z"
       style="display:inline;fill:none;stroke:#ff171b;stroke-width:0.19999;stroke-linecap:butt;stroke-linejoin:miter;stroke-miterlimit:22.9256;stroke-dasharray:none;stroke-opacity:1"
       id="path3959-9-3-8" />
    <path
       d="m 838.33076,95.06317 c 15.9597,-0.523617 27.95959,-5.028183 30.60274,-12.491861 l -4.60293,0.003 v -2.999972 l 4.60253,0.002 C 866.28645,72.104379 854.26714,67.525106 838.33715,67.103019 l -0.006,2.968172 h -4.00001 v 21.992184 h 4.00001 v 2.999905 z"
       style="display:inline;fill:none;stroke:#ff171b;stroke-width:0.19999;stroke-linecap:butt;stroke-linejoin:miter;stroke-miterlimit:22.9256;stroke-dasharray:none;stroke-opacity:1"
       id="path3959-9-4-1-31" />
    <path
       d="M 905.21818,95.646427 C 889.25938,95.12281 877.25985,90.618244 874.61656,83.154566 l 4.60309,0.003 v -2.999972 l -4.6027,0.002 c 2.64678,-7.471948 14.66583,-12.051231 30.59483,-12.473318 l 0.01,2.968182 h 3.99989 v 21.992174 h -3.99989 v 2.999905 z"
       style="display:inline;fill:none;stroke:#ff171b;stroke-width:0.19999;stroke-linecap:butt;stroke-linejoin:miter;stroke-miterlimit:22.9256;stroke-dasharray:none;stroke-opacity:1"
       id="path3959-9-3-0" />
    <path
       d="m 919.22731,32.209287 c 15.9597,-0.523607 27.95959,-5.028153 30.60274,-12.491791 l -4.60293,0.003 v -2.999962 l 4.60253,0.002 C 947.183,9.2505776 935.16369,4.6713093 919.2337,4.2492233 l -0.006,2.9681685 h -4.00001 V 29.209512 h 4.00001 v 2.999885 z"
       style="display:inline;fill:none;stroke:#ff171b;stroke-width:0.19999;stroke-linecap:butt;stroke-linejoin:miter;stroke-miterlimit:22.9256;stroke-dasharray:none;stroke-opacity:1"
       id="path3959-9-4-1-0" />
    <path
       d="m 986.1163,32.792544 c -15.9597,-0.52362 -27.9599,-5.028153 -30.60319,-12.491791 l 4.60318,0.003 v -2.999962 l -4.60279,0.002 C 958.16028,9.8338433 970.17992,5.2545657 986.10991,4.832479 l 0.006,2.9681785 h 4.00001 V 29.792769 h -4.00001 v 2.999885 z"
       style="display:inline;fill:none;stroke:#ff171b;stroke-width:0.19999;stroke-linecap:butt;stroke-linejoin:miter;stroke-miterlimit:22.9256;stroke-dasharray:none;stroke-opacity:1"
       id="path3959-9-3-7-9" />
    <path
       d="m 918.33352,63.43558 c 15.9597,-0.523617 27.95959,-5.028163 30.60274,-12.491791 l -4.60293,0.003 v -2.999962 l 4.60253,0.002 C 946.28921,40.476919 934.2699,35.897666 918.33991,35.475586 l -0.006,2.968155 h -4.00001 v 21.992054 h 4.00001 v 2.999895 z"
       style="display:inline;fill:none;stroke:#ff171b;stroke-width:0.19999;stroke-linecap:butt;stroke-linejoin:miter;stroke-miterlimit:22.9256;stroke-dasharray:none;stroke-opacity:1"
       id="path3959-9-4-1-3-5" />
    <path
       d="m 985.22094,64.018824 c -15.9588,-0.523607 -27.95833,-5.02815 -30.60162,-12.491788 l 4.60309,0.003 v -2.999952 l -4.6027,0.002 c 2.64678,-7.471908 14.66583,-12.051161 30.59483,-12.473251 l 0.01,2.968175 h 3.99989 v 21.992044 h -3.99989 v 2.999882 z"
       style="display:inline;fill:none;stroke:#ff171b;stroke-width:0.19999;stroke-linecap:butt;stroke-linejoin:miter;stroke-miterlimit:22.9256;stroke-dasharray:none;stroke-opacity:1"
       id="path3959-9-3-8-7" />
    <path
       d="m 918.33352,95.18524 c 15.9597,-0.523617 27.95959,-5.028163 30.60274,-12.491791 l -4.60293,0.003 v -2.999962 l 4.60253,0.002 C 946.28921,72.226579 934.2699,67.647326 918.33991,67.225246 l -0.006,2.968155 h -4.00001 v 21.992054 h 4.00001 v 2.999895 z"
       style="display:inline;fill:none;stroke:#ff171b;stroke-width:0.19999;stroke-linecap:butt;stroke-linejoin:miter;stroke-miterlimit:22.9256;stroke-dasharray:none;stroke-opacity:1"
       id="path3959-9-4-1-31-8" />
    <path
       d="m 985.22094,95.768484 c -15.9588,-0.523607 -27.95833,-5.02815 -30.60162,-12.491788 l 4.60309,0.003 v -2.999952 l -4.6027,0.002 c 2.64678,-7.471908 14.66583,-12.051161 30.59483,-12.473251 l 0.01,2.968175 h 3.99989 v 21.992044 h -3.99989 v 2.999882 z"
       style="display:inline;fill:none;stroke:#ff171b;stroke-width:0.19999;stroke-linecap:butt;stroke-linejoin:miter;stroke-miterlimit:22.9256;stroke-dasharray:none;stroke-opacity:1"
       id="path3959-9-3-0-3" />
  </g>
</svg>
