<?xml version="1.0" encoding="UTF-8" standalone="no"?>
<!-- Created with Inkscape (http://www.inkscape.org/) -->

<svg
   width="1000mm"
   height="100mm"
   viewBox="0 0 1000 100"
   version="1.1"
   id="svg5"
   inkscape:version="1.1 (c68e22c387, 2021-05-23)"
   sodipodi:docname="00_Balsa_6mm.svg"
   xmlns:inkscape="http://www.inkscape.org/namespaces/inkscape"
   xmlns:sodipodi="http://sodipodi.sourceforge.net/DTD/sodipodi-0.dtd"
   xmlns="http://www.w3.org/2000/svg"
   xmlns:svg="http://www.w3.org/2000/svg">
  <sodipodi:namedview
     id="namedview7"
     pagecolor="#ffffff"
     bordercolor="#666666"
     borderopacity="1.0"
     inkscape:pageshadow="2"
     inkscape:pageopacity="0.0"
     inkscape:pagecheckerboard="0"
     inkscape:document-units="mm"
     showgrid="false"
     units="mm"
     showguides="true"
     inkscape:lockguides="false"
     inkscape:zoom="0.44106042"
     inkscape:cx="1889.7638"
     inkscape:cy="189.31647"
     inkscape:window-width="2560"
     inkscape:window-height="1377"
     inkscape:window-x="-8"
     inkscape:window-y="-8"
     inkscape:window-maximized="1"
     inkscape:current-layer="layer1"
     width="1000mm" />
  <defs
     id="defs2" />
  <g
     inkscape:label="Calque 1"
     inkscape:groupmode="layer"
     id="layer1">
    <path
       d="M 7.7042275,28.519918 H 30.800445 m -23.0963235,0 c 12.1830025,1.974768 28.5489975,4.600653 39.5471585,6.024344 5.799567,0.741117 12.282131,1.716681 18.090308,2.398388 5.46615,0.629594 10.935337,1.231081 16.408797,1.809098 l 7.038051,0.831077 c 9.844353,0.968614 19.925564,1.949398 29.785844,2.764382 5.31089,0.4257 10.13629,0.784007 15.45241,1.155414 4.31299,0.28998 15.3809,0.945784 19.69731,1.199084 5.5311,0.309487 4.9101,0.268217 10.44529,0.513007 4.58029,0.18881 8.97939,0.391787 13.56219,0.540207 9.02691,0.312097 18.36801,0.1899 28.0387,0.2649 5.15359,0.0486 12.44971,-0.007 17.60428,0 h 15.87451 L 168.92399,31.45148 c -1.17972,1.269294 -2.87401,2.068398 -4.75459,2.068398 -3.58931,0 -6.5,-2.910792 -6.5,-6.499964 0,-3.589179 2.91069,-6.499961 6.5,-6.499961 1.88058,0 3.57487,0.799104 4.76179,2.075978 l 70.31778,-14.5760278 -15.8744,1.1e-4 c -5.15458,0.007 -12.45069,-0.0486 -17.60428,0 -9.6707,0.075 -19.01179,-0.0472 -28.03871,0.2649 -4.58279,0.1484097 -8.98189,0.3513967 -13.56218,0.5402067 -5.53523,0.2447867 -4.9142,0.2034767 -10.44533,0.5130067 -4.31638,0.2532867 -15.38429,0.9090634 -19.69728,1.1990834 -5.31611,0.371397 -10.14151,0.729674 -15.4524,1.155371 -9.86032,0.815017 -19.941501,1.795801 -29.785844,2.764385 l -7.038051,0.831107 c -5.47346,0.577984 -10.942647,1.179501 -16.408807,1.809108 -5.808167,0.681667 -12.290741,1.657261 -18.090298,2.398378 -10.998165,1.423701 -27.36416,4.049586 -39.5471625,6.024354 m 0,0 H 30.800445 c 1.876284,0 2.072887,2.964305 0,3.000005"
       style="display:inline;fill:none;stroke:#ff171b;stroke-width:0.19999;stroke-linecap:butt;stroke-linejoin:miter;stroke-miterlimit:2.61313;stroke-dasharray:none;stroke-opacity:1"
       id="path2259" />
    <path
       d="M 5.4688274,73.925348 H 28.565037 m -23.0963196,0 c 12.1829996,1.97477 28.5489996,4.60065 39.5471596,6.02434 5.79957,0.74112 12.28213,1.71668 18.09031,2.39839 5.46615,0.62959 10.93533,1.23108 16.40879,1.8091 l 7.03806,0.83108 c 9.84435,0.96861 19.925563,1.94939 29.785843,2.76438 5.31089,0.4257 10.13629,0.784 15.45241,1.15541 4.31299,0.28998 15.3809,0.94579 19.69731,1.19909 5.5311,0.30948 4.9101,0.26821 10.44529,0.513 4.58029,0.18881 8.97939,0.39179 13.56219,0.54021 9.02691,0.3121 18.36801,0.1899 28.0387,0.2649 5.15359,0.0486 12.44971,-0.007 17.60428,0 h 15.87451 l -70.32498,-14.56834 c -1.17972,1.26929 -2.87401,2.0684 -4.75459,2.0684 -3.58931,0 -6.5,-2.91079 -6.5,-6.49997 0,-3.58917 2.91069,-6.49996 6.5,-6.49996 1.88058,0 3.57487,0.79911 4.76179,2.07598 l 70.31778,-14.57603 -15.8744,1.1e-4 c -5.15458,0.007 -12.45069,-0.0486 -17.60428,0 -9.6707,0.075 -19.01179,-0.0472 -28.03871,0.2649 -4.58279,0.14841 -8.98189,0.3514 -13.56218,0.54021 -5.53523,0.24479 -4.9142,0.20348 -10.44533,0.51301 -4.31638,0.25328 -15.38429,0.90906 -19.69728,1.19908 -5.31611,0.3714 -10.14151,0.72967 -15.4524,1.15537 -9.86032,0.81502 -19.941503,1.7958 -29.785843,2.76439 l -7.03806,0.8311 c -5.47346,0.57799 -10.94264,1.1795 -16.4088,1.80911 -5.80817,0.68167 -12.29074,1.65726 -18.0903,2.39838 -10.99817,1.4237 -27.36416,4.04959 -39.5471596,6.02435 m 0,0 H 28.565037 c 1.87629,0 2.07289,2.96431 0,3.00001"
       style="display:inline;fill:none;stroke:#ff171b;stroke-width:0.19999;stroke-linecap:butt;stroke-linejoin:miter;stroke-miterlimit:2.61313;stroke-dasharray:none;stroke-opacity:1"
       id="path2259-8" />
    <path
       d="m 181.40244,28.140488 h 23.09622 m -23.09633,0 c 12.18301,1.974768 28.549,4.600653 39.54716,6.024344 5.79957,0.741117 12.28213,1.716681 18.09031,2.398388 5.46615,0.629594 10.93534,1.231081 16.40879,1.809098 l 7.03806,0.831077 c 9.84435,0.968614 19.92556,1.949398 29.78584,2.764382 5.31089,0.4257 10.13629,0.784007 15.45241,1.155414 4.31299,0.28998 15.3809,0.945784 19.69731,1.199084 5.5311,0.309487 4.9101,0.268217 10.44529,0.513007 4.58029,0.18881 8.97939,0.391787 13.56219,0.540207 9.02691,0.312097 18.36801,0.1899 28.0387,0.2649 5.15359,0.0486 12.44971,-0.007 17.60428,0 h 15.87451 L 342.6222,31.07205 c -1.17972,1.269294 -2.87401,2.068398 -4.75459,2.068398 -3.58931,0 -6.5,-2.910792 -6.5,-6.499964 0,-3.589179 2.91069,-6.499961 6.5,-6.499961 1.88058,0 3.57487,0.799104 4.76179,2.075978 l 70.31778,-14.576028 -15.8744,1.1e-4 c -5.15458,0.007 -12.45069,-0.0486 -17.60428,0 -9.6707,0.075 -19.01179,-0.0472 -28.03871,0.2649 -4.58279,0.14841 -8.98189,0.351397 -13.56218,0.540207 -5.53523,0.244787 -4.9142,0.203477 -10.44533,0.513007 -4.31638,0.253286 -15.38429,0.909063 -19.69728,1.199083 -5.31611,0.371397 -10.14151,0.729674 -15.4524,1.155371 -9.86032,0.815017 -19.9415,1.795801 -29.78584,2.764385 l -7.03806,0.831107 c -5.47346,0.577984 -10.94264,1.179501 -16.4088,1.809108 -5.80817,0.681667 -12.29074,1.657261 -18.0903,2.398378 -10.99816,1.423701 -27.36416,4.049586 -39.54716,6.024354 m 0,0 h 23.09622 c 1.87628,0 2.07288,2.964305 0,3.000005"
       style="display:inline;fill:none;stroke:#ff171b;stroke-width:0.19999;stroke-linecap:butt;stroke-linejoin:miter;stroke-miterlimit:2.61313;stroke-dasharray:none;stroke-opacity:1"
       id="path2259-9" />
    <path
       d="m 179.16704,73.545918 h 23.09621 m -23.09632,0 c 12.183,1.97477 28.549,4.60065 39.54716,6.02434 5.79957,0.74112 12.28213,1.71668 18.09031,2.39839 5.46615,0.62959 10.93533,1.23108 16.40879,1.8091 l 7.03806,0.83108 c 9.84435,0.96861 19.92556,1.94939 29.78584,2.76438 5.31089,0.4257 10.13629,0.784 15.45241,1.15541 4.31299,0.28998 15.3809,0.94579 19.69731,1.19909 5.5311,0.30948 4.9101,0.26821 10.44529,0.513 4.58029,0.18881 8.97939,0.39179 13.56219,0.54021 9.02691,0.3121 18.36801,0.1899 28.0387,0.2649 5.15359,0.0486 12.44971,-0.007 17.60428,0 h 15.87451 L 340.3868,76.477478 c -1.17972,1.26929 -2.87401,2.0684 -4.75459,2.0684 -3.58931,0 -6.5,-2.91079 -6.5,-6.49997 0,-3.58917 2.91069,-6.49996 6.5,-6.49996 1.88058,0 3.57487,0.79911 4.76179,2.07598 l 70.31778,-14.57603 -15.8744,1.1e-4 c -5.15458,0.007 -12.45069,-0.0486 -17.60428,0 -9.6707,0.075 -19.01179,-0.0472 -28.03871,0.2649 -4.58279,0.14841 -8.98189,0.3514 -13.56218,0.54021 -5.53523,0.24479 -4.9142,0.20348 -10.44533,0.51301 -4.31638,0.25328 -15.38429,0.90906 -19.69728,1.19908 -5.31611,0.3714 -10.14151,0.72967 -15.4524,1.15537 -9.86032,0.81502 -19.9415,1.7958 -29.78584,2.76439 l -7.03806,0.8311 c -5.47346,0.57799 -10.94264,1.1795 -16.4088,1.80911 -5.80817,0.68167 -12.29074,1.65726 -18.0903,2.39838 -10.99817,1.4237 -27.36416,4.04959 -39.54716,6.02435 m 0,0 h 23.09621 c 1.87629,0 2.07289,2.96431 0,3.00001"
       style="display:inline;fill:none;stroke:#ff171b;stroke-width:0.19999;stroke-linecap:butt;stroke-linejoin:miter;stroke-miterlimit:2.61313;stroke-dasharray:none;stroke-opacity:1"
       id="path2259-8-1" />
    <path
       d="m 356.30727,28.800142 h 23.09622 m -23.09633,0 c 12.183,1.97477 28.549,4.60065 39.54716,6.02434 5.79957,0.74112 12.28213,1.71668 18.09031,2.39839 5.46615,0.62959 10.93533,1.23108 16.40879,1.8091 l 7.03806,0.83108 c 9.84435,0.96861 19.92556,1.94939 29.78584,2.76438 5.31089,0.4257 10.13629,0.784 15.45241,1.15541 4.31299,0.28998 15.3809,0.94579 19.69731,1.19909 5.5311,0.30948 4.9101,0.26821 10.44529,0.513 4.58029,0.18881 8.97939,0.39179 13.56219,0.54021 9.02691,0.3121 18.36801,0.1899 28.0387,0.2649 5.15359,0.0486 12.44971,-0.007 17.60428,0 h 15.87451 l -70.32498,-14.56834 c -1.17972,1.26929 -2.87401,2.0684 -4.75459,2.0684 -3.58931,0 -6.5,-2.91079 -6.5,-6.49997 0,-3.58918 2.91069,-6.49996 6.5,-6.49996 1.88058,0 3.57487,0.79911 4.76179,2.07598 l 70.31778,-14.5760303 -15.8744,1.1e-4 c -5.15458,0.007 -12.45069,-0.0486 -17.60428,0 -9.6707,0.075 -19.01179,-0.0472 -28.03871,0.2649 -4.58279,0.14841 -8.98189,0.3514 -13.56218,0.54021 -5.53523,0.24479 -4.9142,0.20348 -10.44533,0.51301 -4.31638,0.25328 -15.38429,0.9090603 -19.69728,1.1990803 -5.31611,0.3714 -10.14151,0.72967 -15.4524,1.15537 -9.86032,0.81502 -19.9415,1.7958 -29.78584,2.76439 l -7.03806,0.8311 c -5.47346,0.57799 -10.94264,1.1795 -16.4088,1.80911 -5.80817,0.68167 -12.29074,1.65726 -18.0903,2.39838 -10.99817,1.4237 -27.36416,4.04958 -39.54716,6.02435 m 0,0 h 23.09622 c 1.87628,0 2.07288,2.96431 0,3.00001"
       style="display:inline;fill:none;stroke:#ff171b;stroke-width:0.19999;stroke-linecap:butt;stroke-linejoin:miter;stroke-miterlimit:2.61313;stroke-dasharray:none;stroke-opacity:1"
       id="path2259-88" />
    <path
       d="m 354.07187,74.205572 h 23.09621 m -23.09632,0 c 12.183,1.97477 28.549,4.60065 39.54716,6.02434 5.79957,0.74112 12.28213,1.71668 18.09031,2.39839 5.46615,0.62959 10.93533,1.23108 16.40879,1.8091 l 7.03806,0.83108 c 9.84435,0.96861 19.92556,1.94939 29.78584,2.76438 5.31089,0.4257 10.13629,0.784 15.45241,1.15541 4.31299,0.28998 15.3809,0.94579 19.69731,1.19909 5.5311,0.30948 4.9101,0.26821 10.44529,0.513 4.58029,0.18881 8.97939,0.39179 13.56219,0.54021 9.02691,0.3121 18.36801,0.1899 28.0387,0.2649 5.15359,0.0486 12.44971,-0.007 17.60428,0 h 15.87451 l -70.32498,-14.56834 c -1.17972,1.26929 -2.87401,2.0684 -4.75459,2.0684 -3.58931,0 -6.5,-2.91079 -6.5,-6.49997 0,-3.58917 2.91069,-6.49996 6.5,-6.49996 1.88058,0 3.57487,0.79911 4.76179,2.07598 l 70.31778,-14.57603 -15.8744,1.1e-4 c -5.15458,0.007 -12.45069,-0.0486 -17.60428,0 -9.6707,0.075 -19.01179,-0.0472 -28.03871,0.2649 -4.58279,0.14841 -8.98189,0.3514 -13.56218,0.54021 -5.53523,0.24479 -4.9142,0.20348 -10.44533,0.51301 -4.31638,0.25328 -15.38429,0.90906 -19.69728,1.19908 -5.31611,0.3714 -10.14151,0.72967 -15.4524,1.15537 -9.86032,0.81502 -19.9415,1.7958 -29.78584,2.76439 l -7.03806,0.8311 c -5.47346,0.57799 -10.94264,1.1795 -16.4088,1.80911 -5.80817,0.68167 -12.29074,1.65726 -18.0903,2.39838 -10.99817,1.4237 -27.36416,4.04959 -39.54716,6.02435 m 0,0 h 23.09621 c 1.87629,0 2.07289,2.96431 0,3.00001"
       style="display:inline;fill:none;stroke:#ff171b;stroke-width:0.19999;stroke-linecap:butt;stroke-linejoin:miter;stroke-miterlimit:2.61313;stroke-dasharray:none;stroke-opacity:1"
       id="path2259-8-16" />
    <path
       d="m 530.00548,28.420712 h 23.09622 m -23.09633,0 c 12.18301,1.97477 28.549,4.60065 39.54716,6.02434 5.79957,0.74112 12.28213,1.71668 18.09031,2.39839 5.46615,0.62959 10.93534,1.23108 16.40879,1.8091 l 7.03806,0.83107 c 9.84435,0.96862 19.92556,1.9494 29.78584,2.76439 5.31089,0.4257 10.13629,0.784 15.45241,1.15541 4.31299,0.28998 15.3809,0.94578 19.69731,1.19908 5.5311,0.30949 4.9101,0.26822 10.44529,0.51301 4.58029,0.18881 8.97939,0.39179 13.56219,0.54021 9.02691,0.3121 18.36801,0.1899 28.0387,0.2649 5.15359,0.0486 12.44971,-0.007 17.60428,0 h 15.87451 l -70.32498,-14.56834 c -1.17972,1.26929 -2.87401,2.0684 -4.75459,2.0684 -3.58931,0 -6.5,-2.91079 -6.5,-6.49997 0,-3.58917 2.91069,-6.49996 6.5,-6.49996 1.88058,0 3.57487,0.79911 4.76179,2.07598 l 70.31778,-14.5760303 -15.8744,1.1e-4 c -5.15458,0.007 -12.45069,-0.0486 -17.60428,0 -9.6707,0.075 -19.01179,-0.0472 -28.03871,0.2649 -4.58279,0.14841 -8.98189,0.3514 -13.56218,0.54021 -5.53523,0.24479 -4.9142,0.20348 -10.44533,0.51301 -4.31638,0.25328 -15.38429,0.9090603 -19.69728,1.1990803 -5.31611,0.3714 -10.14151,0.72967 -15.4524,1.15537 -9.86032,0.81502 -19.9415,1.7958 -29.78584,2.76439 l -7.03806,0.8311 c -5.47346,0.57799 -10.94264,1.1795 -16.4088,1.80911 -5.80817,0.68167 -12.29074,1.65726 -18.0903,2.39838 -10.99816,1.4237 -27.36416,4.04959 -39.54716,6.02435 m 0,0 h 23.09622 c 1.87628,0 2.07288,2.96431 0,3.00001"
       style="display:inline;fill:none;stroke:#ff171b;stroke-width:0.19999;stroke-linecap:butt;stroke-linejoin:miter;stroke-miterlimit:2.61313;stroke-dasharray:none;stroke-opacity:1"
       id="path2259-9-2" />
    <path
       d="m 527.77008,73.826142 h 23.09621 m -23.09632,0 c 12.183,1.97477 28.549,4.60065 39.54716,6.02434 5.79957,0.74112 12.28213,1.71668 18.09031,2.39839 5.46615,0.62959 10.93533,1.23108 16.40879,1.8091 l 7.03806,0.83108 c 9.84435,0.96861 19.92556,1.94939 29.78584,2.76438 5.31089,0.4257 10.13629,0.784 15.45241,1.15541 4.31299,0.28998 15.3809,0.94579 19.69731,1.19909 5.5311,0.30948 4.9101,0.26821 10.44529,0.513 4.58029,0.18881 8.97939,0.39179 13.56219,0.54021 9.02691,0.3121 18.36801,0.1899 28.0387,0.2649 5.15359,0.0486 12.44971,-0.007 17.60428,0 h 15.87451 l -70.32498,-14.56834 c -1.17972,1.26929 -2.87401,2.0684 -4.75459,2.0684 -3.58931,0 -6.5,-2.91079 -6.5,-6.49997 0,-3.58917 2.91069,-6.49996 6.5,-6.49996 1.88058,0 3.57487,0.79911 4.76179,2.07598 l 70.31778,-14.57603 -15.8744,1.1e-4 c -5.15458,0.007 -12.45069,-0.0486 -17.60428,0 -9.6707,0.075 -19.01179,-0.0472 -28.03871,0.2649 -4.58279,0.14841 -8.98189,0.3514 -13.56218,0.54021 -5.53523,0.24479 -4.9142,0.20348 -10.44533,0.51301 -4.31638,0.25328 -15.38429,0.90906 -19.69728,1.19908 -5.31611,0.3714 -10.14151,0.72967 -15.4524,1.15537 -9.86032,0.81502 -19.9415,1.7958 -29.78584,2.76439 l -7.03806,0.8311 c -5.47346,0.57799 -10.94264,1.1795 -16.4088,1.80911 -5.80817,0.68167 -12.29074,1.65726 -18.0903,2.39838 -10.99817,1.4237 -27.36416,4.04959 -39.54716,6.02435 m 0,0 h 23.09621 c 1.87629,0 2.07289,2.96431 0,3.00001"
       style="display:inline;fill:none;stroke:#ff171b;stroke-width:0.19999;stroke-linecap:butt;stroke-linejoin:miter;stroke-miterlimit:2.61313;stroke-dasharray:none;stroke-opacity:1"
       id="path2259-8-1-7" />
    <path
       d="m 727.46719,28.610421 h 23.09622 m -23.09633,0 c 12.18301,1.97477 28.549,4.60065 39.54716,6.02434 5.79957,0.74112 12.28213,1.71668 18.09031,2.39839 5.46615,0.62959 10.93534,1.23108 16.40879,1.8091 l 7.03806,0.83107 c 9.84435,0.96862 19.92556,1.9494 29.78584,2.76439 5.31089,0.4257 10.13629,0.784 15.45241,1.15541 4.31299,0.28998 15.3809,0.94578 19.69731,1.19908 5.5311,0.30949 4.9101,0.26822 10.44529,0.51301 4.58029,0.18881 8.97939,0.39179 13.56219,0.54021 9.02691,0.3121 18.36801,0.1899 28.0387,0.2649 5.15359,0.0486 12.44971,-0.007 17.60425,0 h 15.8745 l -70.32494,-14.56834 c -1.17972,1.26929 -2.87401,2.0684 -4.75459,2.0684 -3.58931,0 -6.5,-2.91079 -6.5,-6.49997 0,-3.58917 2.91069,-6.49996 6.5,-6.49996 1.88058,0 3.57487,0.79911 4.76179,2.07598 l 70.31774,-14.5760299 -15.8744,1.1e-4 c -5.15454,0.007 -12.45065,-0.0486 -17.60424,0 -9.6707,0.075 -19.01179,-0.0472 -28.03871,0.2649 -4.58279,0.14841 -8.98189,0.3514 -13.56218,0.54021 -5.53523,0.24479 -4.9142,0.20348 -10.44533,0.51301 -4.31638,0.25328 -15.38429,0.9090599 -19.69728,1.1990799 -5.31611,0.3714 -10.14151,0.72967 -15.4524,1.15537 -9.86032,0.81502 -19.9415,1.7958 -29.78584,2.76439 l -7.03806,0.8311 c -5.47346,0.57799 -10.94264,1.1795 -16.4088,1.80911 -5.80817,0.68167 -12.29074,1.65726 -18.0903,2.39838 -10.99816,1.4237 -27.36416,4.04959 -39.54716,6.02435 m 0,0 h 23.09622 c 1.87628,0 2.07288,2.96431 0,3.00001"
       style="display:inline;fill:none;stroke:#ff171b;stroke-width:0.19999;stroke-linecap:butt;stroke-linejoin:miter;stroke-miterlimit:2.61313;stroke-dasharray:none;stroke-opacity:1"
       id="path2259-9-2-7" />
    <path
       d="M 725.23179,74.015851 H 748.328 m -23.09632,0 c 12.183,1.97477 28.549,4.60065 39.54716,6.02434 5.79957,0.74112 12.28213,1.71668 18.09031,2.39839 5.46615,0.62959 10.93533,1.23108 16.40879,1.8091 l 7.03806,0.83108 c 9.84435,0.96861 19.92556,1.94939 29.78584,2.76438 5.31089,0.4257 10.13629,0.784 15.45241,1.15541 4.31299,0.28998 15.3809,0.94579 19.69731,1.19909 5.5311,0.30948 4.9101,0.26821 10.44529,0.513 4.58029,0.18881 8.97939,0.39179 13.56219,0.54021 9.02691,0.3121 18.36801,0.1899 28.0387,0.2649 5.15359,0.0486 12.44971,-0.007 17.60428,0 h 15.87447 l -70.32494,-14.56834 c -1.17972,1.26929 -2.87401,2.0684 -4.75459,2.0684 -3.58931,0 -6.5,-2.91079 -6.5,-6.49997 0,-3.58917 2.91069,-6.49996 6.5,-6.49996 1.88058,0 3.57487,0.79911 4.76179,2.07598 l 70.31774,-14.57603 -15.87436,1.1e-4 c -5.15458,0.007 -12.45069,-0.0486 -17.60428,0 -9.6707,0.075 -19.01179,-0.0472 -28.03871,0.2649 -4.58279,0.14841 -8.98189,0.3514 -13.56218,0.54021 -5.53523,0.24479 -4.9142,0.20348 -10.44533,0.51301 -4.31638,0.25328 -15.38429,0.90906 -19.69728,1.19908 -5.31611,0.3714 -10.14151,0.72967 -15.4524,1.15537 -9.86032,0.81502 -19.9415,1.7958 -29.78584,2.76439 l -7.03806,0.8311 c -5.47346,0.57799 -10.94264,1.1795 -16.4088,1.80911 -5.80817,0.68167 -12.29074,1.65726 -18.0903,2.39838 -10.99817,1.4237 -27.36416,4.04959 -39.54716,6.02435 m 0,0 H 748.328 c 1.87629,0 2.07289,2.96431 0,3.00001"
       style="display:inline;fill:none;stroke:#ff171b;stroke-width:0.19999;stroke-linecap:butt;stroke-linejoin:miter;stroke-miterlimit:2.61313;stroke-dasharray:none;stroke-opacity:1"
       id="path2259-8-1-7-1" />
  </g>
</svg>
