<?xml version="1.0" encoding="UTF-8" standalone="no"?>
<!-- Created with Inkscape (http://www.inkscape.org/) -->

<svg
   width="500mm"
   height="100mm"
   viewBox="0 0 500 100"
   version="1.1"
   id="svg3003"
   inkscape:version="1.1 (c68e22c387, 2021-05-23)"
   sodipodi:docname="40_P500_Balsa_4mm_Nervure0.svg"
   xmlns:inkscape="http://www.inkscape.org/namespaces/inkscape"
   xmlns:sodipodi="http://sodipodi.sourceforge.net/DTD/sodipodi-0.dtd"
   xmlns="http://www.w3.org/2000/svg"
   xmlns:svg="http://www.w3.org/2000/svg">
  <sodipodi:namedview
     id="namedview3005"
     pagecolor="#ffffff"
     bordercolor="#666666"
     borderopacity="1.0"
     inkscape:pageshadow="2"
     inkscape:pageopacity="0.0"
     inkscape:pagecheckerboard="0"
     inkscape:document-units="mm"
     showgrid="false"
     inkscape:zoom="0.4424647"
     inkscape:cx="1483.7342"
     inkscape:cy="188.71562"
     inkscape:window-width="2560"
     inkscape:window-height="1377"
     inkscape:window-x="-8"
     inkscape:window-y="-8"
     inkscape:window-maximized="1"
     inkscape:current-layer="layer1"
     width="500mm" />
  <defs
     id="defs3000" />
  <g
     inkscape:label="Calque 1"
     inkscape:groupmode="layer"
     id="layer1">
    <path
       d="m 5.026423,47.384534 c 0.8228134,0 1.4900901,0.70708 1.4900901,1.57907 0,0.87193 -0.6672767,1.57904 -1.4900901,1.57904 m 94.215683,-1.61601 c 0,-1.16261 0.901194,-2.10541 2.012274,-2.10541 1.11111,0 2.01221,0.9428 2.01221,2.10541 0,1.16258 -0.9011,2.10538 -2.01221,2.10538 -1.11108,0 -2.012274,-0.9428 -2.012274,-2.10538 z m -14.923016,0 c 0,-1.16261 0.901194,-2.10541 2.012268,-2.10541 1.111104,0 2.012301,0.9428 2.012301,2.10541 0,1.16258 -0.901197,2.10538 -2.012301,2.10538 -1.111074,0 -2.012268,-0.9428 -2.012268,-2.10538 z m 74.6837,0.0372 c -1.6123,-9.00599 -16.04059,-14.30549 -35.026,-13.9906 -44.76847,0.74271 -116.2942835,10.5241 -117.4602769,10.69421 l -1.4900901,1.71711 m 0,3.15811 1.4900901,1.71757 c 1.1656134,0.17 72.6478169,10.31959 117.4223869,10.69601 19.04341,0.16009 33.4505,-4.9808 35.06389,-13.99262"
       style="display:inline;fill:none;stroke:#ff171b;stroke-width:0.19999;stroke-linecap:butt;stroke-linejoin:miter;stroke-miterlimit:22.9256;stroke-dasharray:none;stroke-opacity:1"
       id="path3509" />
    <path
       d="m 156.32463,17.04533 c -0.82282,0 -1.4901,0.707081 -1.4901,1.579071 0,0.871931 0.66728,1.579041 1.4901,1.579041 M 62.108407,18.587431 c 0,-1.162611 -0.9012,-2.105411 -2.01228,-2.105411 -1.11111,0 -2.01221,0.9428 -2.01221,2.105411 0,1.162581 0.9011,2.105381 2.01221,2.105381 1.11108,0 2.01228,-0.9428 2.01228,-2.105381 z m 14.9231,0 c 0,-1.162611 -0.9012,-2.105411 -2.01228,-2.105411 -1.11111,0 -2.01231,0.9428 -2.01231,2.105411 0,1.162581 0.9012,2.105381 2.01231,2.105381 1.11108,0 2.01228,-0.9428 2.01228,-2.105381 z m -74.6837898,0.0372 C 3.9600172,9.6186381 18.388307,4.3191381 37.373717,4.6340281 82.142307,5.3767381 153.66853,15.158129 154.83453,15.328239 l 1.4901,1.717111 m 0,3.158112 -1.4901,1.71757 c -1.16562,0.17 -72.648233,10.31959 -117.422923,10.69601 -19.04341,0.16009 -33.4504998,-4.9808 -35.0638898,-13.992621"
       style="display:inline;fill:none;stroke:#ff171b;stroke-width:0.19999;stroke-linecap:butt;stroke-linejoin:miter;stroke-miterlimit:22.9256;stroke-dasharray:none;stroke-opacity:1"
       id="path3509-8-3" />
    <text
       xml:space="preserve"
       style="font-style:normal;font-weight:normal;font-size:10.5833px;line-height:1.25;font-family:sans-serif;fill:#000000;fill-opacity:1;stroke:none;stroke-width:0.264583"
       x="-44.018162"
       y="21.330326"
       id="text7840"
       transform="scale(-1,1)"><tspan
         sodipodi:role="line"
         id="tspan7838"
         style="stroke-width:0.264583"
         x="-44.018162"
         y="21.330326">0</tspan></text>
    <path
       d="m 158.68641,79.144772 c -0.82283,0 -1.49011,0.707081 -1.49011,1.579071 0,0.871931 0.66728,1.579041 1.49011,1.579041 M 64.470384,80.686873 c 0,-1.162611 -0.901197,-2.105411 -2.012271,-2.105411 -1.111101,0 -2.012198,0.9428 -2.012198,2.105411 0,1.162581 0.901097,2.105381 2.012198,2.105381 1.111074,0 2.012271,-0.9428 2.012271,-2.105381 z m 14.923013,0 c 0,-1.162611 -0.901194,-2.105411 -2.012268,-2.105411 -1.111104,0 -2.012298,0.9428 -2.012298,2.105411 0,1.162581 0.901194,2.105381 2.012298,2.105381 1.111074,0 2.012268,-0.9428 2.012268,-2.105381 z m -74.683443,0.0372 C 6.3222531,71.71808 20.75053,66.41858 39.735832,66.73347 84.50417,67.47618 156.0303,77.257571 157.1963,77.427681 l 1.49011,1.717111 m 0,3.158112 -1.49011,1.71757 c -1.16562,0.17 -72.64814,10.31959 -117.422578,10.69601 C 20.73042,94.876574 6.3233431,89.735684 4.709954,80.723863"
       style="display:inline;fill:none;stroke:#ff171b;stroke-width:0.19999;stroke-linecap:butt;stroke-linejoin:miter;stroke-miterlimit:22.9256;stroke-dasharray:none;stroke-opacity:1"
       id="path3509-8-3-7" />
    <text
       xml:space="preserve"
       style="font-style:normal;font-weight:normal;font-size:10.5833px;line-height:1.25;font-family:sans-serif;fill:#000000;fill-opacity:1;stroke:none;stroke-width:0.264583"
       x="-46.380447"
       y="83.429779"
       id="text7840-2"
       transform="scale(-1,1)"><tspan
         sodipodi:role="line"
         id="tspan7838-7"
         style="stroke-width:0.264583"
         x="-46.380447"
         y="83.429779">0</tspan></text>
    <text
       xml:space="preserve"
       style="font-style:normal;font-weight:normal;font-size:10.5833px;line-height:1.25;font-family:sans-serif;fill:#000000;fill-opacity:1;stroke:none;stroke-width:0.264583"
       x="122.48299"
       y="50.099449"
       id="text16418"><tspan
         sodipodi:role="line"
         id="tspan16416"
         style="stroke-width:0.264583"
         x="122.48299"
         y="50.099449">0</tspan></text>
    <path
       d="m 163.32883,48.147254 c 0.82282,0 1.49009,0.707077 1.49009,1.579064 0,0.871924 -0.66727,1.579031 -1.49009,1.579031 m 94.21569,-1.616001 c 0,-1.162604 0.90119,-2.105398 2.01227,-2.105398 1.11111,0 2.01221,0.942794 2.01221,2.105398 0,1.162571 -0.9011,2.105368 -2.01221,2.105368 -1.11108,0 -2.01227,-0.942797 -2.01227,-2.105368 z m -14.92302,0 c 0,-1.162604 0.90119,-2.105398 2.01227,-2.105398 1.1111,0 2.0123,0.942794 2.0123,2.105398 0,1.162571 -0.9012,2.105368 -2.0123,2.105368 -1.11108,0 -2.01227,-0.942797 -2.01227,-2.105368 z m 74.6837,0.0372 c -1.6123,-9.005939 -16.04059,-14.305409 -35.026,-13.990522 -44.76847,0.742707 -116.29428,10.52404 -117.46028,10.69415 l -1.49009,1.717098 m 0,3.158095 1.49009,1.717558 c 1.16562,0.17 72.64782,10.319533 117.42239,10.69595 19.04341,0.16009 33.4505,-4.980773 35.06389,-13.992539"
       style="display:inline;fill:none;stroke:#ff171b;stroke-width:0.19999;stroke-linecap:butt;stroke-linejoin:miter;stroke-miterlimit:22.9256;stroke-dasharray:none;stroke-opacity:1"
       id="path3509-1" />
    <path
       d="m 314.62704,17.80818 c -0.82282,0 -1.4901,0.707081 -1.4901,1.579071 0,0.871931 0.66728,1.579041 1.4901,1.579041 m -94.21622,-1.616011 c 0,-1.162611 -0.9012,-2.105411 -2.01228,-2.105411 -1.11111,0 -2.01221,0.9428 -2.01221,2.105411 0,1.162581 0.9011,2.105381 2.01221,2.105381 1.11108,0 2.01228,-0.9428 2.01228,-2.105381 z m 14.9231,0 c 0,-1.162611 -0.9012,-2.105411 -2.01228,-2.105411 -1.11111,0 -2.01231,0.9428 -2.01231,2.105411 0,1.162581 0.9012,2.105381 2.01231,2.105381 1.11108,0 2.01228,-0.9428 2.01228,-2.105381 z m -74.68379,0.0372 c 1.6123,-9.005993 16.04059,-14.30549 35.026,-13.9906003 44.76859,0.7427097 116.29481,10.5240983 117.46081,10.6942083 l 1.4901,1.717111 m 0,3.158112 -1.4901,1.71757 c -1.16562,0.17 -72.64823,10.319549 -117.42292,10.695966 -19.04341,0.16009 -33.4505,-4.98077 -35.06389,-13.992577"
       style="display:inline;fill:none;stroke:#ff171b;stroke-width:0.19999;stroke-linecap:butt;stroke-linejoin:miter;stroke-miterlimit:22.9256;stroke-dasharray:none;stroke-opacity:1"
       id="path3509-8-3-5" />
    <text
       xml:space="preserve"
       style="font-style:normal;font-weight:normal;font-size:10.5833px;line-height:1.25;font-family:sans-serif;fill:#000000;fill-opacity:1;stroke:none;stroke-width:0.264583"
       x="-202.31963"
       y="22.093155"
       id="text7840-5"
       transform="scale(-1,1)"><tspan
         sodipodi:role="line"
         id="tspan7838-76"
         style="stroke-width:0.264583"
         x="-202.31963"
         y="22.093155">0</tspan></text>
    <path
       d="m 316.98882,79.907314 c -0.82283,0 -1.49011,0.707077 -1.49011,1.579061 0,0.871927 0.66728,1.579034 1.49011,1.579034 m -94.21603,-1.616001 c 0,-1.162604 -0.90119,-2.105398 -2.01227,-2.105398 -1.1111,0 -2.0122,0.942794 -2.0122,2.105398 0,1.162571 0.9011,2.105368 2.0122,2.105368 1.11108,0 2.01227,-0.942797 2.01227,-2.105368 z m 14.92302,0 c 0,-1.162604 -0.9012,-2.105398 -2.01227,-2.105398 -1.11111,0 -2.0123,0.942794 -2.0123,2.105398 0,1.162571 0.90119,2.105368 2.0123,2.105368 1.11107,0 2.01227,-0.942797 2.01227,-2.105368 z m -74.68345,0.0372 c 1.6123,-9.005946 16.04058,-14.305416 35.02588,-13.990529 44.76834,0.742707 116.29447,10.52404 117.46047,10.69415 l 1.49011,1.717108 m 0,3.158102 -1.49011,1.717558 c -1.16562,0.17 -72.64814,10.319533 -117.42258,10.69595 -19.0433,0.16009 -33.45038,-4.980773 -35.06377,-13.992549"
       style="display:inline;fill:none;stroke:#ff171b;stroke-width:0.19999;stroke-linecap:butt;stroke-linejoin:miter;stroke-miterlimit:22.9256;stroke-dasharray:none;stroke-opacity:1"
       id="path3509-8-3-7-4" />
    <text
       xml:space="preserve"
       style="font-style:normal;font-weight:normal;font-size:10.5833px;line-height:1.25;font-family:sans-serif;fill:#000000;fill-opacity:1;stroke:none;stroke-width:0.264583"
       x="-204.68192"
       y="84.193138"
       id="text7840-2-1"
       transform="scale(-1,1)"><tspan
         sodipodi:role="line"
         id="tspan7838-7-4"
         style="stroke-width:0.264583"
         x="-204.68192"
         y="84.193138">0</tspan></text>
    <text
       xml:space="preserve"
       style="font-style:normal;font-weight:normal;font-size:10.5833px;line-height:1.25;font-family:sans-serif;fill:#000000;fill-opacity:1;stroke:none;stroke-width:0.264583"
       x="280.78516"
       y="50.862343"
       id="text16418-8"><tspan
         sodipodi:role="line"
         id="tspan16416-4"
         style="stroke-width:0.264583"
         x="280.78516"
         y="50.862343">0</tspan></text>
    <path
       d="m 321.09607,47.919947 c 0.82282,0 1.49009,0.707077 1.49009,1.579061 0,0.871924 -0.66727,1.579031 -1.49009,1.579031 m 94.21569,-1.616001 c 0,-1.162604 0.90119,-2.105398 2.01227,-2.105398 1.11111,0 2.01221,0.942794 2.01221,2.105398 0,1.162574 -0.9011,2.105368 -2.01221,2.105368 -1.11108,0 -2.01227,-0.942794 -2.01227,-2.105368 z m -14.92302,0 c 0,-1.162604 0.90119,-2.105398 2.01227,-2.105398 1.1111,0 2.0123,0.942794 2.0123,2.105398 0,1.162574 -0.9012,2.105368 -2.0123,2.105368 -1.11108,0 -2.01227,-0.942794 -2.01227,-2.105368 z m 74.6837,0.0372 c -1.6123,-9.005939 -16.04059,-14.305409 -35.026,-13.990522 -44.76847,0.742707 -116.29428,10.52404 -117.46028,10.69415 l -1.49009,1.717101 m 0,3.158092 1.49009,1.717561 c 1.16562,0.169997 72.64782,10.31953 117.42239,10.695947 19.04341,0.16009 33.4505,-4.98077 35.06389,-13.992539"
       style="display:inline;fill:none;stroke:#ff171b;stroke-width:0.19999;stroke-linecap:butt;stroke-linejoin:miter;stroke-miterlimit:22.9256;stroke-dasharray:none;stroke-opacity:1"
       id="path3509-5" />
    <path
       d="m 472.39428,17.580908 c -0.82282,0 -1.4901,0.707087 -1.4901,1.579071 0,0.871927 0.66728,1.579031 1.4901,1.579031 m -94.21622,-1.616001 c 0,-1.162601 -0.9012,-2.105408 -2.01228,-2.105408 -1.11111,0 -2.01221,0.942807 -2.01221,2.105408 0,1.162574 0.9011,2.105368 2.01221,2.105368 1.11108,0 2.01228,-0.942794 2.01228,-2.105368 z m 14.9231,0 c 0,-1.162601 -0.9012,-2.105408 -2.01228,-2.105408 -1.11111,0 -2.01231,0.942807 -2.01231,2.105408 0,1.162574 0.9012,2.105368 2.01231,2.105368 1.11108,0 2.01228,-0.942794 2.01228,-2.105368 z m -74.68379,0.0372 c 1.6123,-9.005949 16.04059,-14.305416 35.026,-13.990526 44.76859,0.7427034 116.29481,10.524037 117.46081,10.694144 l 1.4901,1.717111 m 0,3.158092 -1.4901,1.717561 c -1.16562,0.17 -72.64823,10.319533 -117.42292,10.69595 -19.04341,0.16009 -33.4505,-4.980773 -35.06389,-13.992542"
       style="display:inline;fill:none;stroke:#ff171b;stroke-width:0.19999;stroke-linecap:butt;stroke-linejoin:miter;stroke-miterlimit:22.9256;stroke-dasharray:none;stroke-opacity:1"
       id="path3509-8-3-6" />
    <text
       xml:space="preserve"
       style="font-style:normal;font-weight:normal;font-size:10.5833px;line-height:1.25;font-family:sans-serif;fill:#000000;fill-opacity:1;stroke:none;stroke-width:0.264583"
       x="-360.08835"
       y="21.865997"
       id="text7840-3"
       transform="scale(-1,1)"><tspan
         sodipodi:role="line"
         id="tspan7838-1"
         style="stroke-width:0.264583"
         x="-360.08835"
         y="21.865997">0</tspan></text>
    <path
       d="m 474.75606,79.680007 c -0.82283,0 -1.49011,0.707077 -1.49011,1.579061 0,0.871924 0.66728,1.579031 1.49011,1.579031 m -94.21603,-1.616001 c 0,-1.162604 -0.90119,-2.105398 -2.01227,-2.105398 -1.1111,0 -2.0122,0.942794 -2.0122,2.105398 0,1.162574 0.9011,2.105368 2.0122,2.105368 1.11108,0 2.01227,-0.942794 2.01227,-2.105368 z m 14.92302,0 c 0,-1.162604 -0.9012,-2.105398 -2.01227,-2.105398 -1.11111,0 -2.0123,0.942794 -2.0123,2.105398 0,1.162574 0.90119,2.105368 2.0123,2.105368 1.11107,0 2.01227,-0.942794 2.01227,-2.105368 z m -74.68345,0.0372 c 1.6123,-9.005949 16.04058,-14.305419 35.02588,-13.990532 44.76834,0.742717 116.29447,10.52405 117.46047,10.69416 l 1.49011,1.717101 m 0,3.158092 -1.49011,1.717561 c -1.16562,0.169997 -72.64814,10.31953 -117.42258,10.695947 -19.0433,0.16009 -33.45038,-4.98077 -35.06377,-13.992539"
       style="display:inline;fill:none;stroke:#ff171b;stroke-width:0.19999;stroke-linecap:butt;stroke-linejoin:miter;stroke-miterlimit:22.9256;stroke-dasharray:none;stroke-opacity:1"
       id="path3509-8-3-7-1" />
    <text
       xml:space="preserve"
       style="font-style:normal;font-weight:normal;font-size:10.5833px;line-height:1.25;font-family:sans-serif;fill:#000000;fill-opacity:1;stroke:none;stroke-width:0.264583"
       x="-362.45071"
       y="83.966141"
       id="text7840-2-9"
       transform="scale(-1,1)"><tspan
         sodipodi:role="line"
         id="tspan7838-7-6"
         style="stroke-width:0.264583"
         x="-362.45071"
         y="83.966141">0</tspan></text>
    <text
       xml:space="preserve"
       style="font-style:normal;font-weight:normal;font-size:10.5833px;line-height:1.25;font-family:sans-serif;fill:#000000;fill-opacity:1;stroke:none;stroke-width:0.264583"
       x="438.55377"
       y="50.635323"
       id="text16418-0"><tspan
         sodipodi:role="line"
         id="tspan16416-3"
         style="stroke-width:0.264583"
         x="438.55377"
         y="50.635323">0</tspan></text>
  </g>
</svg>
