<?xml version="1.0" encoding="UTF-8" standalone="no"?>
<!-- Created with Inkscape (http://www.inkscape.org/) -->

<svg
   width="500mm"
   height="100mm"
   viewBox="0 0 500 100"
   version="1.1"
   id="svg3003"
   inkscape:version="1.1 (c68e22c387, 2021-05-23)"
   sodipodi:docname="41_P500_Balsa_4mm_Nervure1.svg"
   xmlns:inkscape="http://www.inkscape.org/namespaces/inkscape"
   xmlns:sodipodi="http://sodipodi.sourceforge.net/DTD/sodipodi-0.dtd"
   xmlns="http://www.w3.org/2000/svg"
   xmlns:svg="http://www.w3.org/2000/svg">
  <sodipodi:namedview
     id="namedview3005"
     pagecolor="#ffffff"
     bordercolor="#666666"
     borderopacity="1.0"
     inkscape:pageshadow="2"
     inkscape:pageopacity="0.0"
     inkscape:pagecheckerboard="0"
     inkscape:document-units="mm"
     showgrid="false"
     inkscape:zoom="0.4424647"
     inkscape:cx="1318.7493"
     inkscape:cy="188.71562"
     inkscape:window-width="2560"
     inkscape:window-height="1377"
     inkscape:window-x="-8"
     inkscape:window-y="-8"
     inkscape:window-maximized="1"
     inkscape:current-layer="layer1"
     width="500mm" />
  <defs
     id="defs3000" />
  <g
     inkscape:label="Calque 1"
     inkscape:groupmode="layer"
     id="layer1">
    <path
       d="M 167.1116,15.019683 C 84.879493,3.9477127 48.498903,2.8464127 12.649313,2.8464127 l -9.3673097,0.0644 V 34.746433 l 9.3673097,-0.0644 c 35.84959,0 72.23018,-1.1013 154.462287,-12.17319 l 5.0534,-2.2207 c -0.8371,0 -1.51599,-0.68242 -1.51599,-1.5239 0,-0.84151 0.67889,-1.52389 1.51599,-1.52389 z m -106.431107,3.80891 c 0,-2.80491 -2.26268,-5.07958 -5.05297,-5.07958 -2.7903,0 -5.05302,2.27467 -5.05302,5.07958 0,2.8049 2.26272,5.07961 5.05302,5.07961 2.79029,0 5.05297,-2.27471 5.05297,-5.07961 z m -26.01937,0 c 0,-2.80491 -2.26271,-5.07958 -5.05301,-5.07958 -2.7903,0 -5.05312,2.27467 -5.05312,5.07958 0,2.8049 2.26282,5.07961 5.05312,5.07961 2.7903,0 5.05301,-2.27471 5.05301,-5.07961 z"
       style="display:inline;fill:none;stroke:#ff171b;stroke-width:0.19999;stroke-linecap:butt;stroke-linejoin:miter;stroke-miterlimit:22.9256;stroke-dasharray:none;stroke-opacity:1"
       id="path2257" />
    <path
       d="M 8.6815212,46.813017 C 90.913631,35.74105 127.29422,34.639751 163.14381,34.639751 l 9.36731,0.0644 v 31.835616 l -9.36731,-0.0644 c -35.84959,0 -72.230179,-1.1013 -154.4622888,-12.17319 l -5.0534,-2.2207 c 0.8371,0 1.51599,-0.68242 1.51599,-1.5239 0,-0.84151 -0.67889,-1.52389 -1.51599,-1.52389 z m 106.4311088,3.80891 c 0,-2.80491 2.26268,-5.07958 5.05297,-5.07958 2.7903,0 5.05302,2.27467 5.05302,5.07958 0,2.8049 -2.26272,5.07961 -5.05302,5.07961 -2.79029,0 -5.05297,-2.27471 -5.05297,-5.07961 z m 26.01937,0 c 0,-2.80491 2.26271,-5.07958 5.05301,-5.07958 2.7903,0 5.05312,2.27467 5.05312,5.07958 0,2.8049 -2.26282,5.07961 -5.05312,5.07961 -2.7903,0 -5.05301,-2.27471 -5.05301,-5.07961 z"
       style="display:inline;fill:none;stroke:#ff171b;stroke-width:0.19999;stroke-linecap:butt;stroke-linejoin:miter;stroke-miterlimit:22.9256;stroke-dasharray:none;stroke-opacity:1"
       id="path2257-3" />
    <path
       d="m 450.10402,34.514481 c 15.9597,-0.52362 27.9599,-5.02821 30.60319,-12.49193 l -4.60318,0.003 v -2.99999 l 4.60279,0.002 C 478.06004,11.555572 466.0404,6.9762645 450.11041,6.5541749 l -0.006,2.9681981 h -4.00001 v 21.992298 h 4.00001 v 2.99992 z"
       style="display:inline;fill:none;stroke:#ff171b;stroke-width:0.19999;stroke-linecap:butt;stroke-linejoin:miter;stroke-miterlimit:22.9256;stroke-dasharray:none;stroke-opacity:1"
       id="path3959-9-4" />
    <path
       d="m 368.86575,33.402055 c 15.9597,-0.52362 27.95959,-5.02821 30.60274,-12.49193 l -4.60293,0.003 v -2.999991 l 4.60253,0.002 C 396.82144,10.443142 384.80213,5.8638342 368.87214,5.4417447 l -0.006,2.9681981 h -4.00001 V 30.402245 h 4.00001 v 2.99992 z"
       style="display:inline;fill:none;stroke:#ff171b;stroke-width:0.19999;stroke-linecap:butt;stroke-linejoin:miter;stroke-miterlimit:22.9256;stroke-dasharray:none;stroke-opacity:1"
       id="path3959-9-4-1" />
    <path
       d="m 435.75474,33.985314 c -15.9597,-0.52362 -27.9599,-5.02821 -30.60319,-12.49193 l 4.60318,0.003 v -2.99999 l -4.60279,0.002 c 2.64678,-7.471989 14.66642,-12.0512962 30.59641,-12.4733858 l 0.006,2.9681981 h 4.00001 V 30.985504 h -4.00001 v 2.99992 z"
       style="display:inline;fill:none;stroke:#ff171b;stroke-width:0.19999;stroke-linecap:butt;stroke-linejoin:miter;stroke-miterlimit:22.9256;stroke-dasharray:none;stroke-opacity:1"
       id="path3959-9-3" />
    <path
       d="m 449.20787,65.741121 c 15.9588,-0.52362 27.95831,-5.02821 30.60146,-12.49193 l -4.60293,0.003 v -2.99999 l 4.60253,0.002 c -2.64665,-7.47199 -14.66556,-12.051297 -30.59466,-12.473387 l -0.01,2.968199 h -3.99976 v 21.992298 h 3.99976 v 2.99992 z"
       style="display:inline;fill:none;stroke:#ff171b;stroke-width:0.19999;stroke-linecap:butt;stroke-linejoin:miter;stroke-miterlimit:22.9256;stroke-dasharray:none;stroke-opacity:1"
       id="path3959-9-4-3" />
    <path
       d="m 367.97196,64.628695 c 15.9597,-0.52362 27.95959,-5.02821 30.60274,-12.49193 l -4.60293,0.003 v -2.999991 l 4.60253,0.002 c -2.64665,-7.471993 -14.66596,-12.0513 -30.59595,-12.47339 l -0.006,2.968198 h -4.00001 v 21.992303 h 4.00001 v 2.99992 z"
       style="display:inline;fill:none;stroke:#ff171b;stroke-width:0.19999;stroke-linecap:butt;stroke-linejoin:miter;stroke-miterlimit:22.9256;stroke-dasharray:none;stroke-opacity:1"
       id="path3959-9-4-1-3" />
    <path
       d="m 434.85938,65.211954 c -15.9588,-0.52362 -27.95833,-5.02821 -30.60162,-12.49193 l 4.60309,0.003 v -2.99999 l -4.6027,0.002 c 2.64678,-7.471989 14.66583,-12.051297 30.59483,-12.473386 l 0.01,2.968198 h 3.99989 v 21.992298 h -3.99989 v 2.99992 z"
       style="display:inline;fill:none;stroke:#ff171b;stroke-width:0.19999;stroke-linecap:butt;stroke-linejoin:miter;stroke-miterlimit:22.9256;stroke-dasharray:none;stroke-opacity:1"
       id="path3959-9-3-8" />
    <path
       d="m 449.20787,97.491141 c 15.9588,-0.52362 27.95831,-5.02821 30.60146,-12.49193 l -4.60293,0.003 v -2.99999 l 4.60253,0.002 c -2.64665,-7.47199 -14.66556,-12.051297 -30.59466,-12.473387 l -0.01,2.968199 h -3.99976 v 21.992298 h 3.99976 v 2.99992 z"
       style="display:inline;fill:none;stroke:#ff171b;stroke-width:0.19999;stroke-linecap:butt;stroke-linejoin:miter;stroke-miterlimit:22.9256;stroke-dasharray:none;stroke-opacity:1"
       id="path3959-9-4-37" />
    <path
       d="m 367.97196,96.378715 c 15.9597,-0.52362 27.95959,-5.02821 30.60274,-12.49193 l -4.60293,0.003 v -2.999991 l 4.60253,0.002 c -2.64665,-7.471993 -14.66596,-12.0513 -30.59595,-12.47339 l -0.006,2.968198 h -4.00001 v 21.992303 h 4.00001 v 2.99992 z"
       style="display:inline;fill:none;stroke:#ff171b;stroke-width:0.19999;stroke-linecap:butt;stroke-linejoin:miter;stroke-miterlimit:22.9256;stroke-dasharray:none;stroke-opacity:1"
       id="path3959-9-4-1-31" />
    <path
       d="m 434.85938,96.961974 c -15.9588,-0.52362 -27.95833,-5.02821 -30.60162,-12.49193 l 4.60309,0.003 v -2.99999 l -4.6027,0.002 c 2.64678,-7.471989 14.66583,-12.051297 30.59483,-12.473386 l 0.01,2.968198 h 3.99989 v 21.992298 h -3.99989 v 2.99992 z"
       style="display:inline;fill:none;stroke:#ff171b;stroke-width:0.19999;stroke-linecap:butt;stroke-linejoin:miter;stroke-miterlimit:22.9256;stroke-dasharray:none;stroke-opacity:1"
       id="path3959-9-3-0" />
    <text
       xml:space="preserve"
       style="font-style:normal;font-weight:normal;font-size:10.5833px;line-height:1.25;font-family:sans-serif;fill:#000000;fill-opacity:1;stroke:none;stroke-width:0.264583"
       x="90.955292"
       y="53.483078"
       id="text21210"><tspan
         sodipodi:role="line"
         id="tspan21208"
         style="stroke-width:0.264583"
         x="90.955292"
         y="53.483078">1</tspan></text>
    <text
       xml:space="preserve"
       style="font-style:normal;font-weight:normal;font-size:10.5833px;line-height:1.25;font-family:sans-serif;fill:#000000;fill-opacity:1;stroke:none;stroke-width:0.264583"
       x="78.735703"
       y="21.923513"
       id="text22456"><tspan
         sodipodi:role="line"
         id="tspan22454"
         style="stroke-width:0.264583"
         x="78.735703"
         y="21.923513">1</tspan></text>
    <path
       d="M 167.67923,77.201882 C 85.4471,66.129908 49.06651,65.028607 13.216919,65.028607 l -9.3673115,0.0644 v 31.835625 l 9.3673115,-0.0644 c 35.849591,0 72.230181,-1.1013 154.462311,-12.17319 l 5.0534,-2.2207 c -0.8371,0 -1.51599,-0.68242 -1.51599,-1.5239 0,-0.84151 0.67889,-1.52389 1.51599,-1.52389 z M 61.2481,81.010792 c 0,-2.80491 -2.26268,-5.07958 -5.05297,-5.07958 -2.7903,0 -5.05302,2.27467 -5.05302,5.07958 0,2.8049 2.26272,5.07961 5.05302,5.07961 2.79029,0 5.05297,-2.27471 5.05297,-5.07961 z m -26.01937,0 c 0,-2.80491 -2.26271,-5.07958 -5.05301,-5.07958 -2.7903,0 -5.05312,2.27467 -5.05312,5.07958 0,2.8049 2.26282,5.07961 5.05312,5.07961 2.7903,0 5.05301,-2.27471 5.05301,-5.07961 z"
       style="display:inline;fill:none;stroke:#ff171b;stroke-width:0.19999;stroke-linecap:butt;stroke-linejoin:miter;stroke-miterlimit:22.9256;stroke-dasharray:none;stroke-opacity:1"
       id="path2257-8" />
    <text
       xml:space="preserve"
       style="font-style:normal;font-weight:normal;font-size:10.5833px;line-height:1.25;font-family:sans-serif;fill:#000000;fill-opacity:1;stroke:none;stroke-width:0.264583"
       x="79.303314"
       y="84.105728"
       id="text22456-6"><tspan
         sodipodi:role="line"
         id="tspan22454-1"
         style="stroke-width:0.264583"
         x="79.303314"
         y="84.105728">1</tspan></text>
    <path
       d="M 340.52559,15.62898 C 258.29348,4.5570423 221.91289,3.4557429 186.0633,3.4557429 l -9.36731,0.0644 V 35.355619 l 9.36731,-0.0644 c 35.84959,0 72.23018,-1.101294 154.46229,-12.173121 l 5.0534,-2.220688 c -0.8371,0 -1.51599,-0.682417 -1.51599,-1.523891 0,-0.841507 0.67889,-1.523881 1.51599,-1.523881 z m -106.43111,3.808889 c 0,-2.804895 -2.26268,-5.079553 -5.05297,-5.079553 -2.7903,0 -5.05302,2.274658 -5.05302,5.079553 0,2.804882 2.26272,5.07958 5.05302,5.07958 2.79029,0 5.05297,-2.274698 5.05297,-5.07958 z m -26.01937,0 c 0,-2.804895 -2.26271,-5.079553 -5.05301,-5.079553 -2.7903,0 -5.05312,2.274658 -5.05312,5.079553 0,2.804882 2.26282,5.07958 5.05312,5.07958 2.7903,0 5.05301,-2.274698 5.05301,-5.07958 z"
       style="display:inline;fill:none;stroke:#ff171b;stroke-width:0.19999;stroke-linecap:butt;stroke-linejoin:miter;stroke-miterlimit:22.9256;stroke-dasharray:none;stroke-opacity:1"
       id="path2257-4" />
    <path
       d="M 182.09551,47.42214 C 264.32762,36.350233 300.70821,35.248939 336.5578,35.248939 l 9.36731,0.0644 v 31.83544 l -9.36731,-0.0644 c -35.84959,0 -72.23018,-1.101294 -154.46229,-12.173121 l -5.0534,-2.220688 c 0.8371,0 1.51599,-0.682417 1.51599,-1.523891 0,-0.841507 -0.67889,-1.523881 -1.51599,-1.523881 z m 106.43111,3.808889 c 0,-2.804895 2.26268,-5.079553 5.05297,-5.079553 2.7903,0 5.05302,2.274658 5.05302,5.079553 0,2.804882 -2.26272,5.07958 -5.05302,5.07958 -2.79029,0 -5.05297,-2.274698 -5.05297,-5.07958 z m 26.01937,0 c 0,-2.804895 2.26271,-5.079553 5.05301,-5.079553 2.7903,0 5.05312,2.274658 5.05312,5.079553 0,2.804882 -2.26282,5.07958 -5.05312,5.07958 -2.7903,0 -5.05301,-2.274698 -5.05301,-5.07958 z"
       style="display:inline;fill:none;stroke:#ff171b;stroke-width:0.19999;stroke-linecap:butt;stroke-linejoin:miter;stroke-miterlimit:22.9256;stroke-dasharray:none;stroke-opacity:1"
       id="path2257-3-8" />
    <text
       xml:space="preserve"
       style="font-style:normal;font-weight:normal;font-size:10.5833px;line-height:1.25;font-family:sans-serif;fill:#000000;fill-opacity:1;stroke:none;stroke-width:0.264583"
       x="264.3681"
       y="54.092628"
       id="text21210-4"><tspan
         sodipodi:role="line"
         id="tspan21208-5"
         style="stroke-width:0.264583"
         x="264.3681"
         y="54.092628">1</tspan></text>
    <text
       xml:space="preserve"
       style="font-style:normal;font-weight:normal;font-size:10.5833px;line-height:1.25;font-family:sans-serif;fill:#000000;fill-opacity:1;stroke:none;stroke-width:0.264583"
       x="252.14828"
       y="22.532822"
       id="text22456-0"><tspan
         sodipodi:role="line"
         id="tspan22454-8"
         style="stroke-width:0.264583"
         x="252.14828"
         y="22.532822">1</tspan></text>
    <path
       d="M 341.09322,77.810826 C 258.86109,66.738919 222.4805,65.637625 186.63091,65.637625 l -9.36731,0.0644 v 31.83544 l 9.36731,-0.0644 c 35.84959,0 72.23018,-1.101294 154.46231,-12.173121 l 5.0534,-2.220688 c -0.8371,0 -1.51599,-0.682414 -1.51599,-1.523891 0,-0.841504 0.67889,-1.523881 1.51599,-1.523881 z m -106.43113,3.808889 c 0,-2.804892 -2.26268,-5.07955 -5.05297,-5.07955 -2.7903,0 -5.05302,2.274658 -5.05302,5.07955 0,2.804885 2.26272,5.079583 5.05302,5.079583 2.79029,0 5.05297,-2.274698 5.05297,-5.079583 z m -26.01937,0 c 0,-2.804892 -2.26271,-5.07955 -5.05301,-5.07955 -2.7903,0 -5.05312,2.274658 -5.05312,5.07955 0,2.804885 2.26282,5.079583 5.05312,5.079583 2.7903,0 5.05301,-2.274698 5.05301,-5.079583 z"
       style="display:inline;fill:none;stroke:#ff171b;stroke-width:0.19999;stroke-linecap:butt;stroke-linejoin:miter;stroke-miterlimit:22.9256;stroke-dasharray:none;stroke-opacity:1"
       id="path2257-8-1" />
    <text
       xml:space="preserve"
       style="font-style:normal;font-weight:normal;font-size:10.5833px;line-height:1.25;font-family:sans-serif;fill:#000000;fill-opacity:1;stroke:none;stroke-width:0.264583"
       x="252.7159"
       y="84.715744"
       id="text22456-6-1"><tspan
         sodipodi:role="line"
         id="tspan22454-1-5"
         style="stroke-width:0.264583"
         x="252.7159"
         y="84.715744">1</tspan></text>
  </g>
</svg>
