<?xml version="1.0" encoding="UTF-8" standalone="no"?>
<!-- Created with Inkscape (http://www.inkscape.org/) -->

<svg
   width="500mm"
   height="100mm"
   viewBox="0 0 500 100"
   version="1.1"
   id="svg5"
   inkscape:version="1.1 (c68e22c387, 2021-05-23)"
   sodipodi:docname="60_P500_Balsa_6mm.svg"
   xmlns:inkscape="http://www.inkscape.org/namespaces/inkscape"
   xmlns:sodipodi="http://sodipodi.sourceforge.net/DTD/sodipodi-0.dtd"
   xmlns="http://www.w3.org/2000/svg"
   xmlns:svg="http://www.w3.org/2000/svg">
  <sodipodi:namedview
     id="namedview7"
     pagecolor="#ffffff"
     bordercolor="#666666"
     borderopacity="1.0"
     inkscape:pageshadow="2"
     inkscape:pageopacity="0.0"
     inkscape:pagecheckerboard="0"
     inkscape:document-units="mm"
     showgrid="false"
     units="mm"
     showguides="true"
     inkscape:lockguides="false"
     inkscape:zoom="0.44106042"
     inkscape:cx="1889.7638"
     inkscape:cy="189.31647"
     inkscape:window-width="2560"
     inkscape:window-height="1377"
     inkscape:window-x="-8"
     inkscape:window-y="-8"
     inkscape:window-maximized="1"
     inkscape:current-layer="layer1"
     width="500mm" />
  <defs
     id="defs2" />
  <g
     inkscape:label="Calque 1"
     inkscape:groupmode="layer"
     id="layer1">
    <path
       d="M 7.7042275,28.519918 H 30.800445 m -23.0963235,0 c 12.1830025,1.974768 28.5489975,4.600653 39.5471585,6.024344 5.799567,0.741117 12.282131,1.716681 18.090308,2.398388 5.46615,0.629594 10.935337,1.231081 16.408797,1.809098 l 7.038051,0.831077 c 9.844353,0.968614 19.925564,1.949398 29.785844,2.764382 5.31089,0.4257 10.13629,0.784007 15.45241,1.155414 4.31299,0.28998 15.3809,0.945784 19.69731,1.199084 5.5311,0.309487 4.9101,0.268217 10.44529,0.513007 4.58029,0.18881 8.97939,0.391787 13.56219,0.540207 9.02691,0.312097 18.36801,0.1899 28.0387,0.2649 5.15359,0.0486 12.44971,-0.007 17.60428,0 h 15.87451 L 168.92399,31.45148 c -1.17972,1.269294 -2.87401,2.068398 -4.75459,2.068398 -3.58931,0 -6.5,-2.910792 -6.5,-6.499964 0,-3.589179 2.91069,-6.499961 6.5,-6.499961 1.88058,0 3.57487,0.799104 4.76179,2.075978 l 70.31778,-14.5760278 -15.8744,1.1e-4 c -5.15458,0.007 -12.45069,-0.0486 -17.60428,0 -9.6707,0.075 -19.01179,-0.0472 -28.03871,0.2649 -4.58279,0.1484097 -8.98189,0.3513967 -13.56218,0.5402067 -5.53523,0.2447867 -4.9142,0.2034767 -10.44533,0.5130067 -4.31638,0.2532867 -15.38429,0.9090634 -19.69728,1.1990834 -5.31611,0.371397 -10.14151,0.729674 -15.4524,1.155371 -9.86032,0.815017 -19.941501,1.795801 -29.785844,2.764385 l -7.038051,0.831107 c -5.47346,0.577984 -10.942647,1.179501 -16.408807,1.809108 -5.808167,0.681667 -12.290741,1.657261 -18.090298,2.398378 -10.998165,1.423701 -27.36416,4.049586 -39.5471625,6.024354 m 0,0 H 30.800445 c 1.876284,0 2.072887,2.964305 0,3.000005"
       style="display:inline;fill:none;stroke:#ff171b;stroke-width:0.19999;stroke-linecap:butt;stroke-linejoin:miter;stroke-miterlimit:2.61313;stroke-dasharray:none;stroke-opacity:1"
       id="path2259" />
    <path
       d="M 5.4688274,73.925348 H 28.565037 m -23.0963196,0 c 12.1829996,1.97477 28.5489996,4.60065 39.5471596,6.02434 5.79957,0.74112 12.28213,1.71668 18.09031,2.39839 5.46615,0.62959 10.93533,1.23108 16.40879,1.8091 l 7.03806,0.83108 c 9.84435,0.96861 19.925563,1.94939 29.785843,2.76438 5.31089,0.4257 10.13629,0.784 15.45241,1.15541 4.31299,0.28998 15.3809,0.94579 19.69731,1.19909 5.5311,0.30948 4.9101,0.26821 10.44529,0.513 4.58029,0.18881 8.97939,0.39179 13.56219,0.54021 9.02691,0.3121 18.36801,0.1899 28.0387,0.2649 5.15359,0.0486 12.44971,-0.007 17.60428,0 h 15.87451 l -70.32498,-14.56834 c -1.17972,1.26929 -2.87401,2.0684 -4.75459,2.0684 -3.58931,0 -6.5,-2.91079 -6.5,-6.49997 0,-3.58917 2.91069,-6.49996 6.5,-6.49996 1.88058,0 3.57487,0.79911 4.76179,2.07598 l 70.31778,-14.57603 -15.8744,1.1e-4 c -5.15458,0.007 -12.45069,-0.0486 -17.60428,0 -9.6707,0.075 -19.01179,-0.0472 -28.03871,0.2649 -4.58279,0.14841 -8.98189,0.3514 -13.56218,0.54021 -5.53523,0.24479 -4.9142,0.20348 -10.44533,0.51301 -4.31638,0.25328 -15.38429,0.90906 -19.69728,1.19908 -5.31611,0.3714 -10.14151,0.72967 -15.4524,1.15537 -9.86032,0.81502 -19.941503,1.7958 -29.785843,2.76439 l -7.03806,0.8311 c -5.47346,0.57799 -10.94264,1.1795 -16.4088,1.80911 -5.80817,0.68167 -12.29074,1.65726 -18.0903,2.39838 -10.99817,1.4237 -27.36416,4.04959 -39.5471596,6.02435 m 0,0 H 28.565037 c 1.87629,0 2.07289,2.96431 0,3.00001"
       style="display:inline;fill:none;stroke:#ff171b;stroke-width:0.19999;stroke-linecap:butt;stroke-linejoin:miter;stroke-miterlimit:2.61313;stroke-dasharray:none;stroke-opacity:1"
       id="path2259-8" />
    <path
       d="m 181.40244,28.140488 h 23.09622 m -23.09633,0 c 12.18301,1.974768 28.549,4.600653 39.54716,6.024344 5.79957,0.741117 12.28213,1.716681 18.09031,2.398388 5.46615,0.629594 10.93534,1.231081 16.40879,1.809098 l 7.03806,0.831077 c 9.84435,0.968614 19.92556,1.949398 29.78584,2.764382 5.31089,0.4257 10.13629,0.784007 15.45241,1.155414 4.31299,0.28998 15.3809,0.945784 19.69731,1.199084 5.5311,0.309487 4.9101,0.268217 10.44529,0.513007 4.58029,0.18881 8.97939,0.391787 13.56219,0.540207 9.02691,0.312097 18.36801,0.1899 28.0387,0.2649 5.15359,0.0486 12.44971,-0.007 17.60428,0 h 15.87451 L 342.6222,31.07205 c -1.17972,1.269294 -2.87401,2.068398 -4.75459,2.068398 -3.58931,0 -6.5,-2.910792 -6.5,-6.499964 0,-3.589179 2.91069,-6.499961 6.5,-6.499961 1.88058,0 3.57487,0.799104 4.76179,2.075978 l 70.31778,-14.576028 -15.8744,1.1e-4 c -5.15458,0.007 -12.45069,-0.0486 -17.60428,0 -9.6707,0.075 -19.01179,-0.0472 -28.03871,0.2649 -4.58279,0.14841 -8.98189,0.351397 -13.56218,0.540207 -5.53523,0.244787 -4.9142,0.203477 -10.44533,0.513007 -4.31638,0.253286 -15.38429,0.909063 -19.69728,1.199083 -5.31611,0.371397 -10.14151,0.729674 -15.4524,1.155371 -9.86032,0.815017 -19.9415,1.795801 -29.78584,2.764385 l -7.03806,0.831107 c -5.47346,0.577984 -10.94264,1.179501 -16.4088,1.809108 -5.80817,0.681667 -12.29074,1.657261 -18.0903,2.398378 -10.99816,1.423701 -27.36416,4.049586 -39.54716,6.024354 m 0,0 h 23.09622 c 1.87628,0 2.07288,2.964305 0,3.000005"
       style="display:inline;fill:none;stroke:#ff171b;stroke-width:0.19999;stroke-linecap:butt;stroke-linejoin:miter;stroke-miterlimit:2.61313;stroke-dasharray:none;stroke-opacity:1"
       id="path2259-9" />
    <path
       d="m 179.16704,73.545918 h 23.09621 m -23.09632,0 c 12.183,1.97477 28.549,4.60065 39.54716,6.02434 5.79957,0.74112 12.28213,1.71668 18.09031,2.39839 5.46615,0.62959 10.93533,1.23108 16.40879,1.8091 l 7.03806,0.83108 c 9.84435,0.96861 19.92556,1.94939 29.78584,2.76438 5.31089,0.4257 10.13629,0.784 15.45241,1.15541 4.31299,0.28998 15.3809,0.94579 19.69731,1.19909 5.5311,0.30948 4.9101,0.26821 10.44529,0.513 4.58029,0.18881 8.97939,0.39179 13.56219,0.54021 9.02691,0.3121 18.36801,0.1899 28.0387,0.2649 5.15359,0.0486 12.44971,-0.007 17.60428,0 h 15.87451 L 340.3868,76.477478 c -1.17972,1.26929 -2.87401,2.0684 -4.75459,2.0684 -3.58931,0 -6.5,-2.91079 -6.5,-6.49997 0,-3.58917 2.91069,-6.49996 6.5,-6.49996 1.88058,0 3.57487,0.79911 4.76179,2.07598 l 70.31778,-14.57603 -15.8744,1.1e-4 c -5.15458,0.007 -12.45069,-0.0486 -17.60428,0 -9.6707,0.075 -19.01179,-0.0472 -28.03871,0.2649 -4.58279,0.14841 -8.98189,0.3514 -13.56218,0.54021 -5.53523,0.24479 -4.9142,0.20348 -10.44533,0.51301 -4.31638,0.25328 -15.38429,0.90906 -19.69728,1.19908 -5.31611,0.3714 -10.14151,0.72967 -15.4524,1.15537 -9.86032,0.81502 -19.9415,1.7958 -29.78584,2.76439 l -7.03806,0.8311 c -5.47346,0.57799 -10.94264,1.1795 -16.4088,1.80911 -5.80817,0.68167 -12.29074,1.65726 -18.0903,2.39838 -10.99817,1.4237 -27.36416,4.04959 -39.54716,6.02435 m 0,0 h 23.09621 c 1.87629,0 2.07289,2.96431 0,3.00001"
       style="display:inline;fill:none;stroke:#ff171b;stroke-width:0.19999;stroke-linecap:butt;stroke-linejoin:miter;stroke-miterlimit:2.61313;stroke-dasharray:none;stroke-opacity:1"
       id="path2259-8-1" />
    <g
       id="g2705"
       transform="translate(380.63709,168.87698)">
      <path
         d="m 58.131623,-164.30481 -0.01023,2.87158 H 46.131605 c 17.018599,8.49422 17.928201,29.0062 0,38.00002 h 11.989787 v 2.99999 m 47.999998,-22 c -2.54081,-19.53161 -40.655094,-22.14869 -47.999998,-22 m 47.999998,22 c -2.54081,19.53161 -40.655094,22.14869 -47.999998,22"
         style="display:inline;fill:none;stroke:#ff0809;stroke-width:0.19999;stroke-linecap:butt;stroke-linejoin:miter;stroke-miterlimit:22.9256;stroke-dasharray:none;stroke-opacity:1"
         id="path2359-04" />
      <path
         style="fill:none;stroke:#ff0809;stroke-width:0.265;stroke-linecap:butt;stroke-linejoin:miter;stroke-miterlimit:4;stroke-dasharray:none;stroke-opacity:1"
         d="M 105.95503,-143.93074 H 84.121441 l 10e-7,2.99998"
         id="path1568" />
      <path
         style="fill:none;stroke:#ff0809;stroke-width:0.262682px;stroke-linecap:butt;stroke-linejoin:miter;stroke-opacity:1"
         d="M 105.7879,-140.93076 H 84.121441"
         id="path1570" />
    </g>
    <g
       id="g4141"
       transform="translate(420.27854,1.6652749)">
      <path
         style="fill:none;stroke:#ff0000;stroke-width:0.2;stroke-linecap:butt;stroke-linejoin:miter;stroke-miterlimit:4;stroke-dasharray:none;stroke-opacity:1"
         d="M 6.7569616,92.314354 H 18.746748 v 2.999988 l 1.452994,-0.01408 1.275773,-0.04253 1.658506,-0.08505 2.041237,-0.170104 1.91366,-0.127577 1.913659,-0.212629 1.61598,-0.255154 1.615979,-0.170103 1.743557,-0.255155 1.573453,-0.297681 2.041238,-0.340206 1.488402,-0.340206 1.360824,-0.255155 1.275774,-0.382731 1.360824,-0.297681 1.530928,-0.425258 1.148196,-0.340206 1.360825,-0.467783 1.020618,-0.297681 1.403351,-0.510309 1.148196,-0.467784 1.275773,-0.510309 1.318299,-0.637886 1.10567,-0.51031 1.360825,-0.680412 1.063144,-0.637887 1.063144,-0.680412 1.105671,-0.80799 1.148195,-0.807989 0.893042,-0.765464 0.893041,-0.80799 0.552835,-0.595361 0.850515,-0.978093 0.680413,-0.850515 0.425257,-0.637887 0.340207,-0.637886 0.510309,-0.978093 0.425258,-0.935567 0.170103,-0.340206 0.29768,-0.765464 0.212629,-0.935567 0.363978,-1.743648 v 0"
         id="path2134" />
      <path
         style="fill:none;stroke:#ff0000;stroke-width:0.2;stroke-linecap:butt;stroke-linejoin:miter;stroke-miterlimit:4;stroke-dasharray:none;stroke-opacity:1"
         d="m 6.729,54.392002 h 11.989784 v -2.999988 l 1.452994,0.01408 1.275773,0.04253 1.658506,0.08505 2.041237,0.170104 1.91366,0.127577 1.913659,0.212629 1.61598,0.255154 1.615979,0.170103 1.743557,0.255155 1.573453,0.297681 2.041238,0.340206 1.488402,0.340206 1.360824,0.255155 1.275774,0.382731 1.360824,0.297681 1.530928,0.425258 1.148196,0.340206 1.360825,0.467783 1.020618,0.297681 1.403351,0.510309 1.148196,0.467784 1.275773,0.510309 1.318299,0.637886 1.10567,0.51031 1.360825,0.680412 1.063144,0.637887 1.063144,0.680412 1.105671,0.80799 1.148195,0.807989 0.893042,0.765464 0.893041,0.80799 0.552835,0.595361 0.850515,0.978093 0.680413,0.850515 0.425257,0.637887 0.340207,0.637886 0.510309,0.978093 0.425258,0.935567 0.170103,0.340206 0.29768,0.765464 0.212629,0.935567 0.363978,1.743648 v 0"
         id="path2134-3" />
      <path
         style="fill:none;stroke:#ff0000;stroke-width:0.265;stroke-linecap:butt;stroke-linejoin:miter;stroke-miterlimit:4;stroke-dasharray:none;stroke-opacity:1"
         d="M 6.7569616,54.314325 V 92.314354"
         id="path2507" />
      <path
         style="fill:none;stroke:#ff0809;stroke-width:0.265;stroke-linecap:butt;stroke-linejoin:miter;stroke-miterlimit:4;stroke-dasharray:none;stroke-opacity:1"
         d="M 66.567776,71.93989 H 44.734187 l 1e-6,2.99998"
         id="path1568-0" />
      <path
         style="fill:none;stroke:#ff0809;stroke-width:0.262682px;stroke-linecap:butt;stroke-linejoin:miter;stroke-opacity:1"
         d="M 66.400646,74.93987 H 44.734187"
         id="path1570-4" />
    </g>
  </g>
</svg>
